<svg width="703" height="173" viewBox="0 0 703 173" fill="none" xmlns="http://www.w3.org/2000/svg">
<g clip-path="url(#clip0_247_2)">
<path d="M351.497 129.045C350.212 129.045 349.268 130.004 349.257 130.025C349.201 130.071 326.453 151.721 326.453 151.721C318.065 159.797 306.928 156.417 305.738 156.023C305.738 156.023 208.502 129.567 208.489 129.558C189.933 123.975 186.247 117.952 183.407 110.637C183.407 110.637 181.757 106.089 177.718 104.898C177.718 104.898 58.8559 70.0952 58.8451 70.0952C53.9944 68.6025 51.3251 67.2368 49.4181 63.5534C49.4181 63.5534 42.8937 52.0959 42.8721 52.0636C41.4251 49.3172 38.8032 49.0264 38.652 49.0049C29.6613 47.7943 27.0265 42.7947 25.9121 40.6665L20.6101 31.3783C18.9514 28.5004 16.5801 28.257 16.5067 28.2484C11.3947 27.9253 8.96291 26.6393 6.84858 23.1778C6.84858 23.1778 1.66534 14.5788 1.64375 14.5357C-0.904676 9.83986 -0.0235266 6.47954 1.15134 4.48489C3.63065 0.394337 8.16167 0.0841529 9.98012 0.0195312H294.203C302.25 0.0195312 308.753 2.45146 313.56 7.26146C317.013 10.6929 319.391 15.1712 320.622 20.5649C320.644 20.692 320.979 21.8186 323.41 21.8186H379.588C382.022 21.8186 382.355 20.6941 382.376 20.5649C383.607 15.1712 385.985 10.6929 389.438 7.26146C394.246 2.45146 400.746 0.0195312 408.798 0.0195312H693.02C694.839 0.0819988 699.368 0.394337 701.845 4.48273C703.022 6.47739 703.901 9.83771 701.352 14.5335C701.331 14.5766 696.148 23.1756 696.148 23.1756C694.033 26.6372 691.604 27.9232 686.49 28.2463C686.418 28.2549 684.043 28.4983 682.386 31.3761L677.084 40.6644C675.97 42.7926 673.335 47.7921 664.346 49.0027C664.195 49.0243 661.573 49.3151 660.124 52.0615C660.103 52.0938 653.58 63.5512 653.58 63.5512C651.673 67.2346 649.004 68.6025 644.155 70.0931C644.147 70.0931 525.282 104.896 525.282 104.896C521.244 106.087 519.594 110.635 519.594 110.635C516.756 117.95 513.069 123.972 494.511 129.556C494.5 129.564 397.263 156.02 397.263 156.02C396.073 156.415 384.935 159.794 376.547 151.719C376.547 151.719 353.801 130.066 353.741 130.023C353.732 130.002 352.788 129.043 351.503 129.043L351.497 129.045Z" fill="black"/>
<path d="M387.54 25.3186C388.536 20.9265 390.436 17.3249 393.166 14.6C396.946 10.824 402.211 8.90254 408.785 8.90254H539.353C534.865 12.2521 532.509 16.4891 532.351 16.7713C530.557 20.1003 528.674 23.3807 526.704 26.6089H387.08C387.37 26.1027 387.542 25.3186 387.54 25.3186ZM696.699 15.6124L691.602 24.0671C690.649 25.6352 690.06 26.3439 686.142 26.5916L531.513 26.6132C533.053 24.0172 534.539 21.3901 535.971 18.7336C536.014 18.6539 541.491 8.91762 551.216 8.91762L692.87 8.9047C694.355 8.96717 696.286 9.13303 697.308 10.8153C697.431 11.0415 697.722 11.5111 697.722 12.3576C697.722 13.1073 697.483 14.1735 696.699 15.6124ZM677.789 32.3731L672.389 41.8273C671.653 43.2252 670.517 45.3858 666.91 46.6287C663.895 47.3804 657.896 46.9022 655.818 46.6502L524.296 37.9349C525.995 35.4211 527.574 33.0021 529.008 30.7059H678.925C678.532 31.2035 678.147 31.7441 677.789 32.3731ZM655.429 53.2007C655.464 53.1597 650.257 62.3037 649.175 64.2014C648.909 64.5568 647.428 66.1616 642.612 65.524L516.581 48.6621C518.309 46.4089 519.946 44.173 521.482 42.0125L655.36 50.8721C655.557 50.8958 656.12 50.9583 656.926 51.0294C656.344 51.6921 655.841 52.4209 655.429 53.2007ZM612.085 77.5996C607.34 78.8533 598.06 77.4338 594.837 76.766L508.236 59.0123C510.132 56.7915 511.951 54.59 513.677 52.4101L640.242 69.3539L612.085 77.5996ZM569.157 90.1642C563.066 91.7906 555.119 89.1605 555.043 89.1389L554.948 89.1088C554.948 89.1088 554.937 89.098 554.926 89.098L496.963 71.2646C499.764 68.436 502.49 65.5342 505.137 62.5622L594.008 80.7812C594.202 80.8113 596.023 81.1861 598.578 81.5437L569.157 90.1642ZM523.877 103.429C519.762 104.545 513.696 102.175 511.683 101.163C511.683 101.163 496.172 93.9209 480.245 86.4894C484.883 82.6981 489.358 78.7124 493.658 74.543L553.769 93.0442C553.885 93.0873 554.978 93.4427 556.652 93.8175L523.877 103.429ZM514.599 112.476C512.847 116.952 511.018 121.564 498.688 126.184C493.598 127.761 487.544 123.272 487.493 123.223C487.471 123.201 473.744 113.402 458.112 102.246C464.533 98.2906 470.728 93.9816 476.668 89.3392L509.882 104.846C510.066 104.939 513.491 106.664 517.64 107.435C515.657 109.689 514.758 112.017 514.599 112.476ZM468.14 134.872L463.511 136.123C459.613 137.054 454.858 133.202 453.337 131.602C453.337 131.602 445.867 123.849 436.267 113.852C442.425 111.068 448.433 107.965 454.266 104.555L485.05 126.523C485.175 126.626 486.933 127.94 489.516 129.058C482.679 130.915 468.14 134.869 468.14 134.872ZM427.44 145.943C424.19 146.454 420.419 141.133 419.326 139.15L410.042 123.477C417.599 121.313 425.014 118.685 432.246 115.608L450.355 134.456C450.514 134.613 452.519 136.688 455.426 138.327L427.44 145.943ZM396.62 154.321C394.432 154.823 392.585 154.603 390.998 153.646C387.592 151.568 386.458 146.788 386.396 146.508L381.66 129.465C389.842 128.339 397.948 126.719 405.934 124.614L415.757 141.198C416.093 141.79 418.087 145.256 421.074 147.678L396.62 154.321ZM376.645 148.136C376.645 148.136 363.475 135.602 359.009 131.363C365.276 131.145 371.461 130.686 377.535 129.975L382.377 147.402C382.515 148.007 383.482 151.828 386.171 154.866C382.461 153.812 381.336 152.716 376.645 148.136ZM353.558 127.376V74.2824H362.054L376.42 125.98C368.943 126.835 361.324 127.304 353.558 127.376ZM326.57 125.98L340.945 74.2824H349.444V127.369C341.662 127.304 334.045 126.826 326.57 125.98ZM322.797 151.505C321.128 153.122 319.068 154.28 316.817 154.868C319.525 151.82 320.467 147.99 320.61 147.395L325.454 129.999C331.527 130.697 337.712 131.156 343.977 131.365C338.96 136.121 322.797 151.505 322.797 151.505ZM316.595 146.476C316.595 146.527 315.478 151.516 311.984 153.646C310.399 154.603 308.559 154.825 306.371 154.321L281.915 147.675C284.901 145.241 286.916 141.778 287.262 141.142C287.251 141.153 291.404 134.15 297.039 124.623C305.029 126.73 313.141 128.347 321.329 129.463L316.595 146.476ZM275.548 145.943L247.565 138.325C250.467 136.677 252.48 134.6 252.634 134.445C252.634 134.445 260.633 126.113 270.74 115.606C277.971 118.682 285.384 121.314 292.938 123.485L283.692 139.109C282.567 141.131 278.796 146.454 275.548 145.943ZM239.47 136.123L213.47 129.058C215.065 128.374 216.578 127.513 217.979 126.49C217.958 126.512 232.505 116.127 248.72 104.558C254.559 107.964 260.57 111.066 266.73 113.852L249.649 131.602C248.131 133.202 243.373 137.054 239.47 136.123ZM204.27 126.186C191.99 121.564 190.15 116.965 188.405 112.5C187.695 110.645 186.661 108.931 185.349 107.438C188.058 106.903 190.686 106.021 193.169 104.816C193.134 104.827 209.777 97.0745 226.329 89.3392C232.259 93.9888 238.45 98.2981 244.872 102.246L215.537 123.182C215.442 123.276 209.36 127.785 204.27 126.186ZM179.122 103.429C177.883 103.061 164.102 99.0239 146.338 93.8175C147.329 93.6037 148.308 93.3384 149.271 93.0227C149.219 93.0442 197.981 78.0391 209.336 74.543C213.638 78.7078 218.113 82.6906 222.75 86.4808L191.366 101.133C189.29 102.175 183.237 104.545 179.122 103.429ZM133.866 90.1729C124.044 87.3008 114.223 84.4244 104.404 81.5437C105.941 81.3359 107.471 81.078 108.991 80.7704C108.982 80.7833 171.732 67.915 197.862 62.5643C200.513 65.5307 203.236 68.4323 206.028 71.2667L147.999 89.1217C147.868 89.1605 139.954 91.7819 133.866 90.1729ZM90.947 77.6126C81.5516 74.8475 72.1527 72.0946 62.7502 69.3539L189.333 52.4101C191.061 54.5793 192.871 56.7807 194.765 59.0058L108.153 76.7682C104.94 77.4338 95.7004 78.8533 90.947 77.6126ZM60.3918 65.5262C55.6038 66.1638 54.1006 64.587 53.8242 64.2122L47.5244 53.149C47.1235 52.3887 46.6334 51.6786 46.0645 51.0337C46.8722 50.9605 181.535 42.0147 181.535 42.0147C183.126 44.2582 184.755 46.4744 186.422 48.6621L60.3918 65.5262ZM36.0911 46.6265C32.4801 45.3858 31.3354 43.2252 30.5968 41.8251C28.3896 38.0814 25.4849 32.4851 24.0573 30.7016H173.998C175.524 33.1403 177.096 35.5503 178.712 37.9306L47.1702 46.6459C45.1056 46.9001 39.1038 47.3783 36.0911 46.6265ZM16.8915 26.6089C13.2805 26.3396 12.5117 25.9131 11.3757 24.052C11.3886 24.0649 6.66324 16.2306 6.28745 15.6124C5.50349 14.1735 5.24433 13.1073 5.27888 12.3555C5.36527 10.4341 6.6762 8.95424 10.123 8.90039L151.783 8.91332C161.372 8.91332 167.026 18.7315 167.026 18.7315C168.46 21.3882 169.95 24.0146 171.494 26.6089H16.8915ZM294.201 8.90039C300.788 8.90039 306.038 10.8218 309.822 14.6C312.554 17.3227 314.448 20.9243 315.457 25.3186C315.457 25.3186 315.66 26.0704 315.919 26.611H176.298C174.164 23.1171 170.646 16.7735 170.646 16.7735C170.492 16.4934 168.132 12.2543 163.642 8.9047L294.201 8.90039ZM496.384 36.0975V30.7016H524.144C522.651 33.0354 521.115 35.3421 519.538 37.6204L496.384 36.0975ZM496.384 45.9674V40.356L516.655 41.6916C515.158 43.7659 513.556 45.8833 511.886 48.046L496.384 45.9674ZM496.384 56.5933V50.101L508.921 51.7812C507.238 53.8598 505.47 55.9557 503.628 58.0731C500.394 57.4075 497.902 56.9056 496.384 56.5933ZM496.384 60.7786L500.477 61.6101C499.137 63.0909 497.772 64.5494 496.384 65.985V60.7786ZM454.093 74.2824H487.974C484.521 77.7052 476.37 84.3289 476.102 84.5508C467.865 80.6972 459.831 76.962 454.093 74.2824ZM418.929 74.2824H444.392L472.476 87.3898C466.703 91.8033 460.692 95.8992 454.471 99.6593C440.917 89.9768 426.637 79.7817 418.929 74.2824ZM398.213 74.2824H411.873L450.59 101.936C444.962 105.155 439.171 108.08 433.239 110.701C420.491 97.4493 405.133 81.4705 398.213 74.2824ZM380.91 74.2824H392.51L429.194 112.435C422.241 115.317 415.122 117.784 407.876 119.823L380.91 74.2824ZM376.131 74.2824L403.766 120.926C396.124 122.899 388.37 124.415 380.547 125.467L366.319 74.2802H376.131V74.2824ZM326.86 74.2824H336.671L322.443 125.469C314.621 124.416 306.868 122.903 299.224 120.939C309.578 103.472 323.393 80.135 326.86 74.2824ZM310.479 74.2824H322.083L295.115 119.823C287.863 117.789 280.743 115.317 273.792 112.422C288.502 97.1348 306.205 78.7262 310.479 74.2824ZM291.117 74.2824H304.777L269.764 110.701C263.828 108.079 258.031 105.154 252.396 101.936C269.198 89.9359 286.713 77.423 291.117 74.2824ZM226.886 84.5508C226.577 84.3009 218.461 77.4984 215.014 74.2824H248.891L226.886 84.5508ZM258.599 74.2824H284.055L248.515 99.6507C242.294 95.8978 236.285 91.8046 230.516 87.3898C243.857 81.1581 256.212 75.3982 258.599 74.2824ZM206.572 60.7786V65.9419C205.199 64.5193 203.849 63.0745 202.523 61.6079C204.149 61.2698 205.509 60.9962 206.572 60.7786ZM206.572 50.101V56.5912L199.363 58.0731C197.568 56.0049 195.808 53.9073 194.083 51.7812L206.572 50.101ZM206.572 40.356V45.9674L191.113 48.046C189.493 45.954 187.908 43.8356 186.357 41.6916L206.572 40.356ZM206.572 36.0975L183.476 37.6204C181.893 35.3451 180.356 33.0383 178.865 30.7016H206.572V36.0975Z" fill="white"/>
<path d="M210.75 66.5771L210.689 66.5146V27.1191H492.279V66.534C492.271 66.5556 492.258 66.5556 492.249 66.5663L210.75 66.5771Z" fill="url(#paint0_linear_247_2)"/>
<path d="M229.399 33.4111H228.224L216.19 60.2614H219.449L219.501 60.1063C220.475 56.8386 221.73 53.7088 222.948 50.706L223.201 50.0684H232.507C233.942 53.3663 235.251 56.7176 236.431 60.1149L236.485 60.2614H240.984L229.399 33.4111ZM224.112 48.0199C224.358 47.4276 227.516 40.0478 227.892 39.1732C228.263 40.0478 231.483 47.4276 231.736 48.0199H224.112ZM242.279 58.3508L242.379 58.4542C243.8 60.0008 247.005 60.7224 248.728 60.7224C254.374 60.7224 258.328 57.0885 258.328 51.8757C258.328 47.5525 255.047 46.2795 251.877 45.0279C249.061 43.91 246.383 42.8782 246.383 39.6859C246.383 37.2626 248.298 35.5113 250.925 35.5113C253.024 35.5113 254.609 36.6164 255.412 38.639L255.466 38.7833H256.183L257.309 35.395L257.183 35.2787C255.65 33.9001 253.289 33.4111 251.609 33.4111C246.346 33.4111 242.951 36.3428 242.951 40.8943C242.951 45.5277 246.415 46.8718 249.465 48.0845C252.223 49.1487 254.81 50.1718 254.81 53.3555C254.81 56.3087 252.603 58.6351 249.791 58.6351C247.214 58.6351 245.506 57.5279 243.841 54.816L243.776 54.7126H243.059L242.279 58.3508ZM279.575 33.9647H259.779V36.7305L260.034 36.709C262.706 36.4032 265.392 36.2493 268.081 36.248V60.3454H271.884V36.2609C274.573 36.2609 277.141 36.4139 279.543 36.709L279.81 36.7391V33.9647H279.575ZM293.213 33.4111C284.816 33.4111 278.942 39.0569 278.942 47.1238C278.942 55.2619 284.654 60.7202 293.14 60.7202C301.913 60.7202 307.817 55.0206 307.817 46.5487C307.819 37.4694 300.478 33.4111 293.213 33.4111ZM300.243 56.0352C298.375 58.0061 296.032 59.0099 293.244 59.0099C287.097 59.0099 283.121 54.5252 283.121 47.5848C283.121 39.8948 287.138 35.1236 293.589 35.1236C296.632 35.1236 299.504 36.4591 301.28 38.6907C303.23 41.1743 303.627 43.7635 303.627 46.8632C303.638 47.0312 303.649 47.2186 303.649 47.3974C303.649 49.9198 302.619 53.4998 300.243 56.0352ZM334.185 33.9647H331.826V53.4266H331.783C331.647 53.2694 313.771 33.9647 313.771 33.9647H311.953V60.2614H314.547V39.9121H314.601C314.739 40.0693 330.893 57.9049 330.893 57.9049L332.919 60.2636H334.42V33.9647H334.185ZM376.786 33.9647H375.853L369.467 45.5148C369.467 45.5148 365.427 52.8622 365.059 53.5214C361.12 46.9666 357.572 40.0693 354.553 34.0897L354.49 33.9647H353.149L353.127 34.1844C352.751 38.0682 350.484 53.8962 349.492 60.0008L349.441 60.2614H352.637V60.0352C352.637 56.3303 353.296 50.8073 353.995 44.9526L354.417 41.3316C354.864 42.1846 359.824 51.5806 361.718 55.4514L363.863 59.8565H364.58L364.64 59.71C366.845 54.6566 369.96 48.888 374.221 41.2907C374.823 45.8206 375.622 54.8677 376.065 60.0525L376.089 60.2636H380.128L380.093 60.0029C379.182 53.6248 378.186 45.183 377.022 34.1866L376.998 33.9669H376.786V33.9647ZM394.867 33.4111H393.684L381.646 60.2614H384.924L384.967 60.1063C385.946 56.8085 387.207 53.6679 388.431 50.6393C388.431 50.6393 388.583 50.2645 388.656 50.0663H397.969C399.401 53.3646 400.708 56.7158 401.886 60.1128L401.938 60.2593H406.441L394.867 33.4111ZM389.574 48.0199C389.82 47.4276 392.98 40.0478 393.358 39.1732L397.202 48.0199H389.574ZM418.019 47.2703C422.777 46.3118 425.623 43.6084 425.623 39.9552C425.623 35.94 422.796 33.9669 416.972 33.9669H408.709V60.2636H412.503V47.658H413.611C414.593 48.8183 415.577 49.9765 416.563 51.1325C416.551 51.1196 421.032 56.9033 421.032 56.9033L423.485 60.2636H428.455C428.455 60.2614 418.47 47.8239 418.019 47.2703ZM412.503 45.7689V35.8344C414.067 35.7612 416.492 35.6578 417.807 35.8689C420.44 36.2933 421.777 37.8269 421.777 40.4032C421.777 43.0462 420.038 44.9741 417.108 45.5622C415.46 45.8917 413.469 45.8314 412.503 45.7689ZM447.572 33.9647H427.768V36.7305L428.027 36.709C430.696 36.4036 433.379 36.2497 436.065 36.248V60.3454H439.888V36.2609C442.566 36.2609 445.14 36.4139 447.544 36.709L447.81 36.7391V33.9647H447.572ZM450.935 60.2614H454.522V33.9647H450.935V60.2614ZM479.989 33.9647V53.4266H479.957C479.816 53.2694 461.945 33.9647 461.945 33.9647H460.122V60.2614H462.718V39.9121H462.763C462.902 40.0693 479.078 57.9049 479.078 57.9049L481.103 60.2636H482.583V33.9647H479.989Z" fill="white"/>
</g>
<defs>
<linearGradient id="paint0_linear_247_2" x1="292.063" y1="-12.4258" x2="410.578" y2="106.399" gradientUnits="userSpaceOnUse">
<stop stop-color="#339966"/>
<stop offset="1" stop-color="#004F32"/>
</linearGradient>
<clipPath id="clip0_247_2">
<rect width="703" height="173" fill="white"/>
</clipPath>
</defs>
</svg>
