<svg width="195" height="48" viewBox="0 0 195 48" fill="none" xmlns="http://www.w3.org/2000/svg">
<g clip-path="url(#clip0_13_2)">
<path d="M97.4991 35.8045C97.1427 35.8045 96.8809 36.0705 96.8779 36.0764C96.8623 36.089 90.5524 42.096 90.5524 42.096C88.2257 44.3367 85.1363 43.3989 84.8063 43.2896C84.8063 43.2896 57.8349 35.9491 57.8313 35.9467C52.6842 34.3976 51.6616 32.7266 50.8738 30.6969C50.8738 30.6969 50.4161 29.4353 49.2959 29.1048C49.2959 29.1048 16.3255 19.4484 16.3225 19.4484C14.9771 19.0343 14.2366 18.6553 13.7077 17.6333C13.7077 17.6333 11.8979 14.4544 11.8919 14.4454C11.4905 13.6834 10.7633 13.6028 10.7214 13.5968C8.22747 13.2609 7.49662 11.8737 7.18751 11.2832L5.71682 8.70615C5.25674 7.90768 4.59898 7.84014 4.57861 7.83775C3.16064 7.74811 2.4861 7.3913 1.89962 6.43087C1.89962 6.43087 0.461882 4.04502 0.455892 4.03307C-0.250997 2.73018 -0.0065811 1.79784 0.319307 1.24441C1.00703 0.109455 2.26385 0.0233923 2.76826 0.00546265H81.6067C83.8388 0.00546265 85.6426 0.680217 86.9761 2.01478C87.934 2.96685 88.5935 4.20938 88.935 5.70591C88.941 5.74117 89.0338 6.05375 89.7084 6.05375H105.291C105.966 6.05375 106.058 5.74177 106.064 5.70591C106.406 4.20938 107.065 2.96685 108.023 2.01478C109.357 0.680217 111.16 0.00546265 113.393 0.00546265H192.232C192.736 0.0227947 193.992 0.109455 194.68 1.24381C195.006 1.79724 195.25 2.72958 194.543 4.03247C194.537 4.04443 193.099 6.43027 193.099 6.43027C192.513 7.39071 191.839 7.74751 190.42 7.83716C190.4 7.83955 189.741 7.90708 189.282 8.70555L187.811 11.2826C187.502 11.8731 186.771 13.2603 184.278 13.5962C184.236 13.6022 183.509 13.6828 183.107 14.4448C183.101 14.4538 181.292 17.6327 181.292 17.6327C180.763 18.6547 180.022 19.0343 178.677 19.4478C178.675 19.4478 145.704 29.1042 145.704 29.1042C144.584 29.4347 144.126 30.6963 144.126 30.6963C143.339 32.726 142.316 34.397 137.169 35.9461C137.166 35.9485 110.194 43.289 110.194 43.289C109.864 43.3983 106.774 44.3361 104.448 42.0954C104.448 42.0954 98.1383 36.0878 98.1215 36.0758C98.1191 36.0699 97.8573 35.8039 97.5009 35.8039L97.4991 35.8045Z" fill="black"/>
<path d="M107.497 7.02482C107.773 5.8062 108.3 4.80692 109.057 4.05088C110.106 3.00319 111.566 2.47008 113.39 2.47008H149.607C148.362 3.39944 147.709 4.57503 147.665 4.65332C147.167 5.57698 146.645 6.48714 146.098 7.38282H107.369C107.45 7.24237 107.497 7.02482 107.497 7.02482ZM193.252 4.33178L191.838 6.67758C191.574 7.11268 191.411 7.30931 190.324 7.37804L147.432 7.38401C147.86 6.66373 148.272 5.93484 148.669 5.19779C148.681 5.17567 150.2 2.47426 152.898 2.47426L192.19 2.47068C192.602 2.48801 193.138 2.53403 193.421 3.0008C193.455 3.06355 193.536 3.19384 193.536 3.42872C193.536 3.63671 193.47 3.93255 193.252 4.33178ZM188.007 8.98215L186.509 11.6053C186.305 11.9931 185.99 12.5926 184.989 12.9374C184.153 13.146 182.489 13.0133 181.913 12.9434L145.43 10.5253C145.902 9.82783 146.34 9.15666 146.738 8.51956H188.322C188.213 8.65762 188.106 8.80763 188.007 8.98215ZM181.805 14.7609C181.814 14.7495 180.37 17.2866 180.07 17.8131C179.996 17.9117 179.585 18.357 178.249 18.1801L143.291 13.5016C143.77 12.8765 144.224 12.2561 144.65 11.6567L181.785 14.1148C181.84 14.1214 181.996 14.1387 182.22 14.1585C182.058 14.3423 181.919 14.5445 181.805 14.7609ZM169.782 21.5305C168.465 21.8784 165.891 21.4845 164.997 21.2993L140.976 16.3734C141.502 15.7572 142.006 15.1464 142.485 14.5416L177.592 19.2427L169.782 21.5305ZM157.874 25.0167C156.185 25.4679 153.98 24.7382 153.959 24.7322L153.933 24.7238C153.933 24.7238 153.93 24.7208 153.927 24.7208L137.849 19.7728C138.626 18.988 139.382 18.1829 140.116 17.3583L164.767 22.4133C164.821 22.4217 165.326 22.5256 166.035 22.6249L157.874 25.0167ZM145.314 28.6971C144.173 29.0066 142.49 28.3492 141.932 28.0683C141.932 28.0683 137.63 26.059 133.211 23.9971C134.498 22.9451 135.739 21.8393 136.932 20.6825L153.606 25.8157C153.638 25.8277 153.941 25.9263 154.406 26.0303L145.314 28.6971ZM142.741 31.2072C142.255 32.4491 141.747 33.7287 138.327 35.0107C136.915 35.4482 135.236 34.2027 135.222 34.1889C135.216 34.1829 131.408 31.4642 127.072 28.3689C128.853 27.2714 130.572 26.0758 132.219 24.7878L141.432 29.0903C141.483 29.116 142.433 29.5947 143.584 29.8087C143.034 30.4338 142.785 31.0799 142.741 31.2072ZM129.854 37.421L128.57 37.7683C127.489 38.0265 126.17 36.9579 125.748 36.5138C125.748 36.5138 123.676 34.3628 121.013 31.5891C122.721 30.8167 124.387 29.9557 126.005 29.0096L134.544 35.1045C134.579 35.1332 135.067 35.4978 135.783 35.808C133.887 36.3231 129.854 37.4204 129.854 37.421ZM118.564 40.493C117.663 40.6346 116.617 39.1584 116.314 38.608L113.738 34.2594C115.835 33.6591 117.892 32.9299 119.897 32.0762L124.921 37.3057C124.965 37.3493 125.521 37.9249 126.327 38.3797L118.564 40.493ZM110.015 42.8173C109.408 42.9565 108.896 42.8956 108.456 42.6302C107.511 42.0535 107.197 40.7273 107.179 40.6496L105.866 35.9209C108.135 35.6084 110.384 35.1589 112.599 34.575L115.324 39.1764C115.417 39.3407 115.97 40.3023 116.798 40.9741L110.015 42.8173ZM104.475 41.1014C104.475 41.1014 100.822 37.6236 99.5827 36.4475C101.321 36.3871 103.037 36.2598 104.721 36.0626L106.065 40.8976C106.103 41.0656 106.371 42.1258 107.117 42.9685C106.088 42.6762 105.776 42.372 104.475 41.1014ZM98.0707 35.3412V20.6102H100.427L104.412 34.9539C102.338 35.1912 100.225 35.3215 98.0707 35.3412ZM90.5849 34.9539L94.5722 20.6102H96.9295V35.3394C94.7711 35.3215 92.6582 35.1888 90.5849 34.9539ZM89.5383 42.0362C89.0753 42.4847 88.5039 42.8061 87.8795 42.9691C88.6308 42.1234 88.8919 41.0608 88.9315 40.8958L90.2752 36.0691C91.9597 36.2628 93.6754 36.3901 95.4133 36.4481C94.0217 37.7677 89.5383 42.0362 89.5383 42.0362ZM87.8178 40.6406C87.8178 40.655 87.5081 42.0391 86.5388 42.6302C86.0991 42.8956 85.5887 42.9571 84.9819 42.8173L78.1982 40.9735C79.0267 40.2982 79.5856 39.3371 79.6814 39.1608C79.6784 39.1638 80.8304 37.2208 82.3934 34.5774C84.6096 35.1621 86.8597 35.6106 89.131 35.9203L87.8178 40.6406ZM76.4321 40.493L68.6701 38.3791C69.4753 37.9219 70.0336 37.3457 70.0761 37.3027C70.0761 37.3027 72.295 34.991 75.0986 32.0756C77.1043 32.9292 79.1605 33.6593 81.2558 34.2618L78.6912 38.5966C78.3791 39.1578 77.3331 40.6346 76.4321 40.493ZM66.4249 37.7683L59.2128 35.808C59.6553 35.6182 60.0749 35.3792 60.4636 35.0956C60.4577 35.1015 64.4929 32.2202 68.9906 29.0102C70.6101 29.9553 72.2775 30.8161 73.9862 31.5891L69.2482 36.5138C68.8271 36.9579 67.5074 38.0265 66.4249 37.7683ZM56.6608 35.0113C53.2546 33.7287 52.7442 32.4527 52.2601 31.2138C52.0634 30.6991 51.7763 30.2236 51.4125 29.8093C52.1639 29.6608 52.8929 29.4164 53.5817 29.0819C53.5721 29.0849 58.1884 26.934 62.7796 24.7878C64.4247 26.0778 66.1419 27.2735 67.9231 28.3689L59.7861 34.1776C59.7598 34.2039 58.0728 35.4548 56.6608 35.0113ZM49.6854 28.6971C49.3415 28.5949 45.5189 27.4748 40.5917 26.0303C40.8665 25.971 41.1381 25.8974 41.4052 25.8098C41.3908 25.8157 54.9164 21.6525 58.0662 20.6825C59.2595 21.838 60.5008 22.9431 61.787 23.9947L53.0815 28.0599C52.5058 28.3492 50.8266 29.0066 49.6854 28.6971ZM37.1321 25.0191C34.4077 24.2222 31.6835 23.4241 28.9598 22.6249C29.3861 22.5672 29.8105 22.4956 30.2322 22.4103C30.2298 22.4139 47.6354 18.8435 54.8834 17.3589C55.6187 18.1819 56.374 18.987 57.1485 19.7734L41.0524 24.7274C41.0158 24.7382 38.8209 25.4655 37.1321 25.0191ZM25.2271 21.5341C22.6209 20.767 20.0138 20.0031 17.4057 19.2427L52.5177 14.5416C52.997 15.1434 53.499 15.7542 54.0244 16.3716L29.9997 21.2999C29.1083 21.4845 26.5456 21.8784 25.2271 21.5341ZM16.7516 18.1807C15.4235 18.3576 15.0065 17.9201 14.9298 17.8161L13.1824 14.7465C13.0712 14.5356 12.9352 14.3386 12.7774 14.1596C13.0015 14.1393 50.3545 11.6573 50.3545 11.6573C50.7958 12.2797 51.2478 12.8946 51.7102 13.5016L16.7516 18.1807ZM10.011 12.9368C9.00935 12.5926 8.69185 11.9931 8.48697 11.6047C7.87473 10.5659 7.069 9.01323 6.67302 8.51837H48.2638C48.6872 9.19499 49.1232 9.86369 49.5716 10.5241L13.0841 12.9422C12.5114 13.0127 10.8467 13.1454 10.011 12.9368ZM4.68535 7.38282C3.68372 7.30811 3.47046 7.18978 3.15535 6.6734C3.15895 6.67699 1.84821 4.50331 1.74397 4.33178C1.52651 3.93255 1.45463 3.63671 1.46421 3.42812C1.48817 2.89501 1.8518 2.48442 2.8079 2.46948L42.1019 2.47307C44.7617 2.47307 46.3301 5.19719 46.3301 5.19719C46.7278 5.93431 47.1411 6.66301 47.5695 7.38282H4.68535ZM81.6062 2.46948C83.4333 2.46948 84.8896 3.00259 85.9392 4.05088C86.697 4.80632 87.2224 5.8056 87.5021 7.02482C87.5021 7.02482 87.5584 7.2334 87.6303 7.38342H48.9018C48.31 6.41402 47.3341 4.65392 47.3341 4.65392C47.2916 4.57622 46.6368 3.40003 45.3913 2.47068L81.6062 2.46948ZM137.688 10.0155V8.51837H145.389C144.974 9.16591 144.548 9.8059 144.111 10.438L137.688 10.0155ZM137.688 12.754V11.1971L143.311 11.5676C142.896 12.1432 142.451 12.7306 141.988 13.3307L137.688 12.754ZM137.688 15.7022V13.9009L141.166 14.367C140.699 14.9438 140.208 15.5253 139.697 16.1128C138.801 15.9281 138.109 15.7889 137.688 15.7022ZM137.688 16.8634L138.823 17.0941C138.452 17.505 138.073 17.9097 137.688 18.308V16.8634ZM125.957 20.6102H135.355C134.398 21.5598 132.137 23.3976 132.062 23.4592C129.778 22.39 127.549 21.3536 125.957 20.6102ZM116.204 20.6102H123.266L131.057 24.2469C129.455 25.4714 127.788 26.6079 126.062 27.6511C122.303 24.9647 118.342 22.136 116.204 20.6102ZM110.457 20.6102H114.246L124.986 28.2829C123.425 29.1759 121.818 29.9876 120.173 30.7147C116.637 27.038 112.377 22.6045 110.457 20.6102ZM105.658 20.6102H108.875L119.051 31.1959C117.122 31.9954 115.148 32.68 113.138 33.2458L105.658 20.6102ZM104.332 20.6102L111.998 33.5518C109.878 34.0991 107.727 34.5198 105.557 34.8117L101.611 20.6096H104.332V20.6102ZM90.6652 20.6102H93.3867L89.4401 34.8123C87.2703 34.5201 85.1198 34.1004 82.9996 33.5554C85.8715 28.709 89.7037 22.234 90.6652 20.6102ZM86.1213 20.6102H89.34L81.8596 33.2458C79.8483 32.6813 77.8731 31.9955 75.9451 31.1923C80.0253 26.9507 84.9358 21.8431 86.1213 20.6102ZM80.7507 20.6102H84.5398L74.8279 30.7147C73.1812 29.9873 71.5731 29.1756 70.0102 28.2829C74.6709 24.9533 79.5293 21.4815 80.7507 20.6102ZM62.9342 23.4592C62.8485 23.3899 60.5972 21.5025 59.6411 20.6102H69.038L62.9342 23.4592ZM71.7307 20.6102H78.7918L68.9337 27.6488C67.208 26.6075 65.5412 25.4718 63.9412 24.2469C67.6416 22.5179 71.0688 20.9197 71.7307 20.6102ZM57.2994 16.8634V18.296C56.9185 17.9013 56.544 17.5004 56.1762 17.0935C56.6273 16.9997 57.0047 16.9238 57.2994 16.8634ZM57.2994 13.9009V15.7016L55.2998 16.1128C54.8019 15.5389 54.3136 14.9569 53.8351 14.367L57.2994 13.9009ZM57.2994 11.1971V12.754L53.0114 13.3307C52.562 12.7503 52.1222 12.1625 51.6922 11.5676L57.2994 11.1971ZM57.2994 10.0155L50.8931 10.438C50.454 9.80674 50.0275 9.16672 49.6141 8.51837H57.2994V10.0155Z" fill="white"/>
<path d="M58.4584 18.4722L58.4417 18.4549V7.52435H136.55V18.4603C136.547 18.4663 136.544 18.4663 136.541 18.4692L58.4584 18.4722Z" fill="url(#paint0_linear_13_2)"/>
<path d="M63.6314 9.27011H63.3055L59.9675 16.7199H60.8715L60.8859 16.6769C61.1561 15.7702 61.5041 14.9018 61.842 14.0687L61.9121 13.8918H64.4934C64.8916 14.8068 65.2547 15.7366 65.5819 16.6793L65.5969 16.7199H66.8447L63.6314 9.27011ZM62.1649 13.3234C62.2332 13.1591 63.109 11.1115 63.2132 10.8688C63.3163 11.1115 64.2095 13.1591 64.2796 13.3234H62.1649ZM67.2042 16.1898L67.2317 16.2185C67.6259 16.6476 68.5149 16.8478 68.9929 16.8478C70.5589 16.8478 71.6558 15.8396 71.6558 14.3932C71.6558 13.1937 70.7458 12.8405 69.8664 12.4933C69.0852 12.1831 68.3424 11.8968 68.3424 11.0111C68.3424 10.3387 68.8737 9.85283 69.6022 9.85283C70.1845 9.85283 70.6242 10.1594 70.847 10.7206L70.862 10.7607H71.0609L71.373 9.82055L71.3383 9.78828C70.9129 9.40578 70.2581 9.27011 69.7921 9.27011C68.3322 9.27011 67.3905 10.0835 67.3905 11.3464C67.3905 12.6319 68.3513 13.0049 69.1972 13.3413C69.9622 13.6366 70.6799 13.9205 70.6799 14.8038C70.6799 15.6232 70.0677 16.2687 69.2877 16.2687C68.573 16.2687 68.0991 15.9615 67.6373 15.209L67.6193 15.1803H67.4204L67.2042 16.1898ZM77.5493 9.42371H72.0583V10.1911L72.129 10.1851C72.87 10.1003 73.6152 10.0576 74.3611 10.0572V16.7432H75.416V10.0608C76.1619 10.0608 76.8741 10.1032 77.5403 10.1851L77.6146 10.1935V9.42371H77.5493ZM81.3323 9.27011C79.0032 9.27011 77.3738 10.8366 77.3738 13.0748C77.3738 15.3327 78.9583 16.8472 81.312 16.8472C83.7453 16.8472 85.3832 15.2658 85.3832 12.9152C85.3838 10.3961 83.3476 9.27011 81.3323 9.27011ZM83.2823 15.5473C82.7641 16.0942 82.1141 16.3727 81.3407 16.3727C79.6358 16.3727 78.5329 15.1283 78.5329 13.2027C78.5329 11.0691 79.6472 9.74525 81.4366 9.74525C82.2806 9.74525 83.0774 10.1158 83.5698 10.735C84.1108 11.4241 84.221 12.1424 84.221 13.0025C84.224 13.0491 84.227 13.1011 84.227 13.1507C84.227 13.8506 83.9412 14.8439 83.2823 15.5473ZM92.6971 9.42371H92.0429V14.8235H92.0309C91.9932 14.7799 87.0348 9.42371 87.0348 9.42371H86.5304V16.7199H87.2498V11.0738H87.2648C87.3031 11.1175 91.7841 16.0661 91.7841 16.0661L92.346 16.7205H92.7624V9.42371H92.6971ZM104.514 9.42371H104.255L102.484 12.6283C102.484 12.6283 101.363 14.667 101.261 14.8498C100.169 13.0312 99.1843 11.1175 98.3468 9.45837L98.3294 9.42371H97.9574L97.9514 9.48467C97.8472 10.5622 97.2182 14.9538 96.9432 16.6476L96.9288 16.7199H97.8154V16.6571C97.8154 15.6292 97.9981 14.0968 98.1922 12.4724L98.309 11.4677C98.433 11.7044 99.8091 14.3113 100.334 15.3853L100.929 16.6075H101.128L101.145 16.5669C101.757 15.1648 102.62 13.5643 103.802 11.4563C103.97 12.7132 104.191 15.2234 104.314 16.6619L104.321 16.7205H105.441L105.431 16.6482C105.178 14.8785 104.902 12.5363 104.579 9.48527L104.573 9.42431H104.514V9.42371ZM109.529 9.27011H109.201L105.862 16.7199H106.771L106.783 16.6769C107.055 15.7619 107.405 14.8905 107.744 14.0502C107.744 14.0502 107.786 13.9462 107.807 13.8912H110.39C110.787 14.8063 111.15 15.7361 111.476 16.6787L111.491 16.7193H112.74L109.529 9.27011ZM108.061 13.3234C108.129 13.1591 109.006 11.1115 109.111 10.8688L110.177 13.3234H108.061ZM115.951 13.1154C117.271 12.8495 118.061 12.0994 118.061 11.0858C118.061 9.97176 117.276 9.42431 115.661 9.42431H113.369V16.7205H114.421V13.223H114.729C115.001 13.5449 115.274 13.8663 115.548 14.187C115.544 14.1834 116.787 15.7882 116.787 15.7882L117.468 16.7205H118.846C118.846 16.7199 116.077 13.269 115.951 13.1154ZM114.421 12.6989V9.94248C114.855 9.92216 115.528 9.89347 115.893 9.95204C116.623 10.0698 116.994 10.4953 116.994 11.2101C116.994 11.9434 116.511 12.4783 115.699 12.6415C115.241 12.7329 114.689 12.7162 114.421 12.6989ZM124.149 9.42371H118.655V10.1911L118.727 10.1851C119.468 10.1004 120.212 10.0577 120.957 10.0572V16.7432H122.017V10.0608C122.76 10.0608 123.474 10.1032 124.141 10.1851L124.215 10.1935V9.42371H124.149ZM125.082 16.7199H126.077V9.42371H125.082V16.7199ZM133.141 9.42371V14.8235H133.132C133.093 14.7799 128.136 9.42371 128.136 9.42371H127.63V16.7199H128.35V11.0738H128.363C128.401 11.1175 132.888 16.0661 132.888 16.0661L133.45 16.7205H133.86V9.42371H133.141Z" fill="white"/>
</g>
<defs>
<linearGradient id="paint0_linear_13_2" x1="81.0132" y1="-3.44766" x2="113.896" y2="29.5123" gradientUnits="userSpaceOnUse">
<stop stop-color="#339966"/>
<stop offset="1" stop-color="#004F32"/>
</linearGradient>
<clipPath id="clip0_13_2">
<rect width="195" height="48" fill="white"/>
</clipPath>
</defs>
</svg>
