<svg width="992" height="708" viewBox="0 0 992 708" fill="none" xmlns="http://www.w3.org/2000/svg">
<path d="M411 88.5H339M445 619.5L90 619.5M902 265.5L339 265.5M902 442.5L90 442.5" stroke="#76ABAE" stroke-width="3"/>
<path fill-rule="evenodd" clip-rule="evenodd" d="M304.558 93.8508C315.478 89.3279 327.181 87 339 87V90C327.575 90 316.262 92.2503 305.707 96.6225C295.151 100.995 285.56 107.403 277.482 115.482C269.403 123.56 262.995 133.151 258.622 143.707C254.25 154.262 252 165.575 252 177C252 188.425 254.25 199.738 258.622 210.293C262.995 220.849 269.403 230.44 277.482 238.518C285.56 246.597 295.151 253.005 305.707 257.378C316.262 261.75 327.575 264 339 264V267C327.181 267 315.478 264.672 304.558 260.149C293.639 255.626 283.718 248.997 275.36 240.64C267.003 232.282 260.374 222.361 255.851 211.442C251.328 200.522 249 188.819 249 177C249 165.181 251.328 153.478 255.851 142.558C260.374 131.639 267.003 121.718 275.36 113.36C283.718 105.003 293.639 98.3738 304.558 93.8508Z" fill="#76ABAE"/>
<path fill-rule="evenodd" clip-rule="evenodd" d="M494.149 34.4415C498.672 23.5222 501 11.819 501 0H498C498 11.425 495.75 22.7381 491.378 33.2935C487.005 43.8488 480.597 53.4396 472.518 61.5183C464.44 69.597 454.849 76.0054 444.293 80.3775C433.738 84.7497 422.425 87 411 87L411 90C422.819 90 434.522 87.6721 445.442 83.1492C456.361 78.6262 466.282 71.9969 474.64 63.6396C482.997 55.2823 489.626 45.3608 494.149 34.4415Z" fill="#76ABAE"/>
<path fill-rule="evenodd" clip-rule="evenodd" d="M479.442 624.851C468.522 620.328 456.819 618 445 618V621C456.425 621 467.738 623.25 478.293 627.622C488.849 631.995 498.44 638.403 506.518 646.482C514.597 654.56 521.005 664.151 525.378 674.707C529.75 685.262 532 696.575 532 708L535 708C535 696.181 532.672 684.478 528.149 673.558C523.626 662.639 516.997 652.718 508.64 644.36C500.282 636.003 490.361 629.374 479.442 624.851Z" fill="#76ABAE"/>
<path fill-rule="evenodd" clip-rule="evenodd" d="M936.442 270.851C925.522 266.328 913.819 264 902 264V267C925.074 267 947.203 276.166 963.518 292.482C979.834 308.797 989 330.926 989 354C989 377.074 979.834 399.203 963.518 415.518C947.203 431.834 925.074 441 902 441L902 354L902 444C913.819 444 925.522 441.672 936.442 437.149C947.361 432.626 957.282 425.997 965.64 417.64C973.997 409.282 980.626 399.361 985.149 388.442C989.672 377.522 992 365.819 992 354C992 342.181 989.672 330.478 985.149 319.558C980.626 308.639 973.997 298.718 965.64 290.36C957.282 282.003 947.361 275.374 936.442 270.851Z" fill="#76ABAE"/>
<path fill-rule="evenodd" clip-rule="evenodd" d="M55.5585 614.149C66.4778 618.672 78.181 621 90 621V618C66.9262 618 44.7974 608.834 28.4817 592.518C12.166 576.203 2.99999 554.074 2.99999 531C2.99999 507.926 12.166 485.797 28.4817 469.482C44.7974 453.166 66.9261 444 90 444L90 531L90 441C78.181 441 66.4778 443.328 55.5585 447.851C44.6392 452.374 34.7177 459.003 26.3604 467.36C18.0031 475.718 11.3738 485.639 6.85084 496.558C2.32791 507.478 -7.62939e-06 519.181 -7.62939e-06 531C-7.62939e-06 542.819 2.32791 554.522 6.85083 565.442C11.3738 576.361 18.0031 586.282 26.3604 594.64C34.7177 602.997 44.6392 609.626 55.5585 614.149Z" fill="#76ABAE"/>
<rect x="265" y="113" width="320" height="128" rx="64" fill="#525252"/>
<path d="M454.283 165.231C453.695 165.231 453.093 165.182 452.477 165.084C451.875 165 451.294 164.874 450.734 164.706C450.188 164.538 449.698 164.328 449.264 164.076C448.956 163.908 448.739 163.691 448.613 163.425C448.487 163.145 448.438 162.865 448.466 162.585C448.508 162.305 448.613 162.06 448.781 161.85C448.963 161.626 449.187 161.486 449.453 161.43C449.733 161.36 450.041 161.409 450.377 161.577C450.951 161.899 451.574 162.137 452.246 162.291C452.932 162.445 453.611 162.522 454.283 162.522C455.305 162.522 456.033 162.368 456.467 162.06C456.901 161.738 457.118 161.339 457.118 160.863C457.118 160.457 456.964 160.135 456.656 159.897C456.348 159.659 455.809 159.456 455.039 159.288L452.666 158.784C451.322 158.504 450.321 158.028 449.663 157.356C449.019 156.67 448.697 155.774 448.697 154.668C448.697 153.968 448.844 153.331 449.138 152.757C449.432 152.183 449.845 151.686 450.377 151.266C450.909 150.846 451.539 150.524 452.267 150.3C453.009 150.076 453.821 149.964 454.703 149.964C455.487 149.964 456.257 150.062 457.013 150.258C457.769 150.44 458.434 150.713 459.008 151.077C459.288 151.245 459.477 151.462 459.575 151.728C459.687 151.98 459.722 152.239 459.68 152.505C459.652 152.757 459.547 152.981 459.365 153.177C459.197 153.373 458.98 153.499 458.714 153.555C458.448 153.611 458.126 153.548 457.748 153.366C457.286 153.128 456.796 152.953 456.278 152.841C455.76 152.729 455.228 152.673 454.682 152.673C454.094 152.673 453.59 152.75 453.17 152.904C452.764 153.058 452.449 153.275 452.225 153.555C452.015 153.835 451.91 154.157 451.91 154.521C451.91 154.927 452.057 155.256 452.351 155.508C452.645 155.76 453.156 155.963 453.884 156.117L456.257 156.621C457.629 156.915 458.651 157.391 459.323 158.049C459.995 158.693 460.331 159.547 460.331 160.611C460.331 161.311 460.191 161.948 459.911 162.522C459.631 163.082 459.225 163.565 458.693 163.971C458.161 164.377 457.524 164.692 456.782 164.916C456.04 165.126 455.207 165.231 454.283 165.231ZM467.089 165.231C466.123 165.231 465.311 165.07 464.653 164.748C464.009 164.426 463.526 163.957 463.204 163.341C462.896 162.725 462.742 161.948 462.742 161.01V157.062H461.86C461.468 157.062 461.16 156.957 460.936 156.747C460.726 156.537 460.621 156.25 460.621 155.886C460.621 155.494 460.726 155.2 460.936 155.004C461.16 154.794 461.468 154.689 461.86 154.689H462.742V153.093C462.742 152.561 462.882 152.162 463.162 151.896C463.442 151.616 463.834 151.476 464.338 151.476C464.856 151.476 465.248 151.616 465.514 151.896C465.78 152.162 465.913 152.561 465.913 153.093V154.689H467.908C468.3 154.689 468.601 154.794 468.811 155.004C469.021 155.2 469.126 155.494 469.126 155.886C469.126 156.25 469.021 156.537 468.811 156.747C468.601 156.957 468.3 157.062 467.908 157.062H465.913V160.884C465.913 161.472 466.046 161.913 466.312 162.207C466.592 162.501 467.033 162.648 467.635 162.648C467.845 162.648 468.041 162.627 468.223 162.585C468.405 162.543 468.573 162.515 468.727 162.501C468.923 162.487 469.084 162.55 469.21 162.69C469.336 162.816 469.399 163.103 469.399 163.551C469.399 163.887 469.343 164.181 469.231 164.433C469.119 164.685 468.923 164.867 468.643 164.979C468.461 165.049 468.209 165.105 467.887 165.147C467.579 165.203 467.313 165.231 467.089 165.231ZM475.77 165.231C474.552 165.231 473.502 165.014 472.62 164.58C471.752 164.132 471.08 163.509 470.604 162.711C470.142 161.899 469.911 160.947 469.911 159.855C469.911 158.791 470.135 157.86 470.583 157.062C471.031 156.25 471.654 155.62 472.452 155.172C473.264 154.71 474.181 154.479 475.203 154.479C475.945 154.479 476.617 154.605 477.219 154.857C477.821 155.095 478.339 155.445 478.773 155.907C479.207 156.355 479.536 156.908 479.76 157.566C479.984 158.21 480.096 158.931 480.096 159.729C480.096 159.995 480.012 160.198 479.844 160.338C479.676 160.464 479.431 160.527 479.109 160.527H472.515V158.889H477.807L477.471 159.183C477.471 158.609 477.387 158.133 477.219 157.755C477.051 157.363 476.806 157.069 476.484 156.873C476.176 156.677 475.791 156.579 475.329 156.579C474.811 156.579 474.37 156.698 474.006 156.936C473.642 157.174 473.362 157.517 473.166 157.965C472.97 158.413 472.872 158.952 472.872 159.582V159.75C472.872 160.814 473.117 161.598 473.607 162.102C474.111 162.606 474.853 162.858 475.833 162.858C476.169 162.858 476.554 162.816 476.988 162.732C477.422 162.648 477.828 162.515 478.206 162.333C478.528 162.179 478.815 162.13 479.067 162.186C479.319 162.228 479.515 162.34 479.655 162.522C479.795 162.704 479.872 162.914 479.886 163.152C479.914 163.39 479.865 163.628 479.739 163.866C479.613 164.09 479.403 164.279 479.109 164.433C478.633 164.699 478.094 164.895 477.492 165.021C476.904 165.161 476.33 165.231 475.77 165.231ZM483.537 168.969C483.019 168.969 482.62 168.829 482.34 168.549C482.074 168.283 481.941 167.884 481.941 167.352V156.117C481.941 155.599 482.074 155.207 482.34 154.941C482.62 154.661 483.005 154.521 483.495 154.521C484.013 154.521 484.405 154.661 484.671 154.941C484.937 155.207 485.07 155.599 485.07 156.117V157.545L484.839 156.726C485.049 156.054 485.469 155.515 486.099 155.109C486.743 154.689 487.478 154.479 488.304 154.479C489.2 154.479 489.984 154.696 490.656 155.13C491.342 155.564 491.874 156.18 492.252 156.978C492.63 157.776 492.819 158.728 492.819 159.834C492.819 160.94 492.63 161.899 492.252 162.711C491.874 163.523 491.349 164.146 490.677 164.58C490.005 165.014 489.214 165.231 488.304 165.231C487.492 165.231 486.771 165.035 486.141 164.643C485.511 164.237 485.084 163.712 484.86 163.068H485.112V167.352C485.112 167.884 484.972 168.283 484.692 168.549C484.426 168.829 484.041 168.969 483.537 168.969ZM487.359 162.858C487.807 162.858 488.199 162.746 488.535 162.522C488.885 162.298 489.151 161.969 489.333 161.535C489.529 161.087 489.627 160.52 489.627 159.834C489.627 158.812 489.417 158.063 488.997 157.587C488.577 157.097 488.031 156.852 487.359 156.852C486.911 156.852 486.512 156.957 486.162 157.167C485.826 157.377 485.56 157.706 485.364 158.154C485.168 158.588 485.07 159.148 485.07 159.834C485.07 160.856 485.28 161.619 485.7 162.123C486.12 162.613 486.673 162.858 487.359 162.858ZM502.702 165C502.254 165 501.911 164.881 501.673 164.643C501.435 164.405 501.316 164.076 501.316 163.656C501.316 163.222 501.435 162.893 501.673 162.669C501.911 162.445 502.254 162.333 502.702 162.333H504.823V152.862H506.356L503.29 154.731C502.968 154.927 502.667 155.004 502.387 154.962C502.121 154.92 501.89 154.801 501.694 154.605C501.498 154.409 501.365 154.178 501.295 153.912C501.239 153.632 501.267 153.359 501.379 153.093C501.491 152.813 501.701 152.575 502.009 152.379L504.928 150.615C505.222 150.433 505.516 150.286 505.81 150.174C506.118 150.062 506.419 150.006 506.713 150.006C507.133 150.006 507.462 150.118 507.7 150.342C507.952 150.552 508.078 150.881 508.078 151.329V162.333H509.989C510.423 162.333 510.759 162.445 510.997 162.669C511.235 162.893 511.354 163.222 511.354 163.656C511.354 164.09 511.235 164.426 510.997 164.664C510.759 164.888 510.423 165 509.989 165H502.702Z" fill="white"/>
<path d="M413.657 202.189C413.013 202.189 412.383 202.14 411.767 202.042C411.151 201.944 410.57 201.797 410.024 201.601C409.478 201.391 408.988 201.139 408.554 200.845C408.344 200.691 408.197 200.516 408.113 200.32C408.043 200.124 408.022 199.935 408.05 199.753C408.092 199.557 408.176 199.389 408.302 199.249C408.428 199.109 408.582 199.025 408.764 198.997C408.946 198.955 409.149 199.011 409.373 199.165C410.003 199.571 410.668 199.872 411.368 200.068C412.068 200.25 412.831 200.341 413.657 200.341C414.847 200.341 415.722 200.131 416.282 199.711C416.856 199.277 417.143 198.717 417.143 198.031C417.143 197.471 416.94 197.03 416.534 196.708C416.128 196.372 415.449 196.106 414.497 195.91L412.25 195.448C410.92 195.168 409.926 194.706 409.268 194.062C408.624 193.418 408.302 192.55 408.302 191.458C408.302 190.8 408.435 190.198 408.701 189.652C408.981 189.106 409.366 188.637 409.856 188.245C410.346 187.839 410.934 187.531 411.62 187.321C412.306 187.111 413.055 187.006 413.867 187.006C414.735 187.006 415.547 187.118 416.303 187.342C417.073 187.566 417.759 187.909 418.361 188.371C418.543 188.497 418.662 188.658 418.718 188.854C418.788 189.036 418.802 189.218 418.76 189.4C418.732 189.582 418.655 189.736 418.529 189.862C418.403 189.988 418.242 190.065 418.046 190.093C417.85 190.107 417.633 190.037 417.395 189.883C416.849 189.519 416.289 189.26 415.715 189.106C415.155 188.938 414.532 188.854 413.846 188.854C413.16 188.854 412.558 188.959 412.04 189.169C411.536 189.379 411.144 189.673 410.864 190.051C410.598 190.429 410.465 190.877 410.465 191.395C410.465 191.983 410.654 192.452 411.032 192.802C411.41 193.152 412.04 193.418 412.922 193.6L415.148 194.062C416.548 194.356 417.591 194.811 418.277 195.427C418.963 196.043 419.306 196.862 419.306 197.884C419.306 198.542 419.173 199.137 418.907 199.669C418.641 200.187 418.263 200.635 417.773 201.013C417.283 201.391 416.688 201.685 415.988 201.895C415.302 202.091 414.525 202.189 413.657 202.189ZM426.363 202.189C425.243 202.189 424.277 201.979 423.465 201.559C422.667 201.125 422.044 200.516 421.596 199.732C421.162 198.934 420.945 197.989 420.945 196.897C420.945 195.833 421.162 194.902 421.596 194.104C422.03 193.306 422.625 192.683 423.381 192.235C424.137 191.787 424.998 191.563 425.964 191.563C426.678 191.563 427.315 191.682 427.875 191.92C428.435 192.144 428.911 192.48 429.303 192.928C429.709 193.362 430.01 193.894 430.206 194.524C430.416 195.154 430.521 195.861 430.521 196.645C430.521 196.883 430.451 197.065 430.311 197.191C430.171 197.303 429.961 197.359 429.681 197.359H422.625V196.057H429.093L428.736 196.351C428.736 195.651 428.631 195.056 428.421 194.566C428.225 194.076 427.924 193.705 427.518 193.453C427.126 193.187 426.636 193.054 426.048 193.054C425.39 193.054 424.83 193.208 424.368 193.516C423.92 193.824 423.577 194.251 423.339 194.797C423.101 195.343 422.982 195.98 422.982 196.708V196.834C422.982 198.066 423.269 198.997 423.843 199.627C424.431 200.243 425.278 200.551 426.384 200.551C426.804 200.551 427.245 200.495 427.707 200.383C428.183 200.271 428.631 200.082 429.051 199.816C429.289 199.676 429.499 199.613 429.681 199.627C429.877 199.641 430.031 199.704 430.143 199.816C430.269 199.928 430.346 200.068 430.374 200.236C430.402 200.404 430.374 200.579 430.29 200.761C430.206 200.929 430.059 201.083 429.849 201.223C429.373 201.545 428.82 201.79 428.19 201.958C427.56 202.112 426.951 202.189 426.363 202.189ZM436.131 202.189C435.039 202.189 434.213 201.874 433.653 201.244C433.107 200.6 432.834 199.676 432.834 198.472V188.119C432.834 187.769 432.925 187.503 433.107 187.321C433.289 187.139 433.548 187.048 433.884 187.048C434.22 187.048 434.479 187.139 434.661 187.321C434.857 187.503 434.955 187.769 434.955 188.119V198.346C434.955 199.046 435.095 199.571 435.375 199.921C435.669 200.257 436.089 200.425 436.635 200.425C436.761 200.425 436.873 200.425 436.971 200.425C437.069 200.411 437.167 200.397 437.265 200.383C437.433 200.369 437.552 200.418 437.622 200.53C437.692 200.628 437.727 200.838 437.727 201.16C437.727 201.454 437.664 201.685 437.538 201.853C437.412 202.007 437.209 202.105 436.929 202.147C436.803 202.161 436.67 202.168 436.53 202.168C436.39 202.182 436.257 202.189 436.131 202.189ZM443.959 202.189C442.839 202.189 441.873 201.979 441.061 201.559C440.263 201.125 439.64 200.516 439.192 199.732C438.758 198.934 438.541 197.989 438.541 196.897C438.541 195.833 438.758 194.902 439.192 194.104C439.626 193.306 440.221 192.683 440.977 192.235C441.733 191.787 442.594 191.563 443.56 191.563C444.274 191.563 444.911 191.682 445.471 191.92C446.031 192.144 446.507 192.48 446.899 192.928C447.305 193.362 447.606 193.894 447.802 194.524C448.012 195.154 448.117 195.861 448.117 196.645C448.117 196.883 448.047 197.065 447.907 197.191C447.767 197.303 447.557 197.359 447.277 197.359H440.221V196.057H446.689L446.332 196.351C446.332 195.651 446.227 195.056 446.017 194.566C445.821 194.076 445.52 193.705 445.114 193.453C444.722 193.187 444.232 193.054 443.644 193.054C442.986 193.054 442.426 193.208 441.964 193.516C441.516 193.824 441.173 194.251 440.935 194.797C440.697 195.343 440.578 195.98 440.578 196.708V196.834C440.578 198.066 440.865 198.997 441.439 199.627C442.027 200.243 442.874 200.551 443.98 200.551C444.4 200.551 444.841 200.495 445.303 200.383C445.779 200.271 446.227 200.082 446.647 199.816C446.885 199.676 447.095 199.613 447.277 199.627C447.473 199.641 447.627 199.704 447.739 199.816C447.865 199.928 447.942 200.068 447.97 200.236C447.998 200.404 447.97 200.579 447.886 200.761C447.802 200.929 447.655 201.083 447.445 201.223C446.969 201.545 446.416 201.79 445.786 201.958C445.156 202.112 444.547 202.189 443.959 202.189ZM454.944 202.189C453.894 202.189 452.984 201.972 452.214 201.538C451.458 201.09 450.87 200.467 450.45 199.669C450.03 198.857 449.82 197.905 449.82 196.813C449.82 196.001 449.939 195.273 450.177 194.629C450.415 193.971 450.751 193.418 451.185 192.97C451.633 192.522 452.172 192.179 452.802 191.941C453.446 191.689 454.16 191.563 454.944 191.563C455.434 191.563 455.945 191.64 456.477 191.794C457.023 191.934 457.527 192.172 457.989 192.508C458.171 192.62 458.283 192.76 458.325 192.928C458.381 193.082 458.388 193.243 458.346 193.411C458.318 193.579 458.241 193.726 458.115 193.852C458.003 193.964 457.863 194.034 457.695 194.062C457.527 194.076 457.345 194.027 457.149 193.915C456.813 193.677 456.47 193.509 456.12 193.411C455.77 193.299 455.434 193.243 455.112 193.243C454.608 193.243 454.16 193.327 453.768 193.495C453.39 193.649 453.068 193.88 452.802 194.188C452.536 194.482 452.333 194.853 452.193 195.301C452.067 195.749 452.004 196.26 452.004 196.834C452.004 197.982 452.27 198.885 452.802 199.543C453.348 200.187 454.118 200.509 455.112 200.509C455.434 200.509 455.77 200.46 456.12 200.362C456.47 200.264 456.813 200.096 457.149 199.858C457.345 199.746 457.527 199.704 457.695 199.732C457.863 199.76 457.996 199.837 458.094 199.963C458.206 200.075 458.276 200.215 458.304 200.383C458.346 200.537 458.339 200.698 458.283 200.866C458.227 201.034 458.108 201.174 457.926 201.286C457.478 201.608 456.988 201.839 456.456 201.979C455.938 202.119 455.434 202.189 454.944 202.189ZM464.621 202.189C463.781 202.189 463.074 202.042 462.5 201.748C461.926 201.454 461.499 201.02 461.219 200.446C460.939 199.872 460.799 199.172 460.799 198.346V193.39H459.539C459.259 193.39 459.042 193.32 458.888 193.18C458.734 193.026 458.657 192.823 458.657 192.571C458.657 192.305 458.734 192.102 458.888 191.962C459.042 191.822 459.259 191.752 459.539 191.752H460.799V189.589C460.799 189.239 460.89 188.973 461.072 188.791C461.268 188.609 461.534 188.518 461.87 188.518C462.206 188.518 462.465 188.609 462.647 188.791C462.829 188.973 462.92 189.239 462.92 189.589V191.752H465.377C465.657 191.752 465.874 191.822 466.028 191.962C466.182 192.102 466.259 192.305 466.259 192.571C466.259 192.823 466.182 193.026 466.028 193.18C465.874 193.32 465.657 193.39 465.377 193.39H462.92V198.178C462.92 198.92 463.074 199.48 463.382 199.858C463.704 200.236 464.222 200.425 464.936 200.425C465.188 200.425 465.405 200.404 465.587 200.362C465.783 200.306 465.944 200.271 466.07 200.257C466.224 200.257 466.35 200.313 466.448 200.425C466.546 200.523 466.595 200.719 466.595 201.013C466.595 201.223 466.553 201.419 466.469 201.601C466.399 201.783 466.266 201.902 466.07 201.958C465.902 202.014 465.671 202.063 465.377 202.105C465.097 202.161 464.845 202.189 464.621 202.189ZM476.736 202.189C476.022 202.189 475.378 202.049 474.804 201.769C474.244 201.489 473.803 201.111 473.481 200.635C473.159 200.159 472.998 199.62 472.998 199.018C472.998 198.262 473.187 197.667 473.565 197.233C473.957 196.785 474.594 196.47 475.476 196.288C476.372 196.092 477.576 195.994 479.088 195.994H480.075V197.296H479.109C478.101 197.296 477.303 197.345 476.715 197.443C476.127 197.541 475.707 197.709 475.455 197.947C475.217 198.171 475.098 198.486 475.098 198.892C475.098 199.424 475.28 199.858 475.644 200.194C476.008 200.516 476.512 200.677 477.156 200.677C477.674 200.677 478.129 200.558 478.521 200.32C478.913 200.068 479.221 199.732 479.445 199.312C479.683 198.892 479.802 198.409 479.802 197.863V195.448C479.802 194.65 479.634 194.076 479.298 193.726C478.962 193.376 478.409 193.201 477.639 193.201C477.191 193.201 476.722 193.257 476.232 193.369C475.756 193.481 475.259 193.67 474.741 193.936C474.503 194.048 474.3 194.083 474.132 194.041C473.964 193.999 473.831 193.908 473.733 193.768C473.635 193.614 473.579 193.453 473.565 193.285C473.565 193.103 473.607 192.928 473.691 192.76C473.789 192.592 473.95 192.466 474.174 192.382C474.79 192.088 475.399 191.878 476.001 191.752C476.603 191.626 477.17 191.563 477.702 191.563C478.64 191.563 479.41 191.71 480.012 192.004C480.628 192.298 481.083 192.746 481.377 193.348C481.671 193.95 481.818 194.727 481.818 195.679V201.076C481.818 201.412 481.734 201.678 481.566 201.874C481.398 202.056 481.153 202.147 480.831 202.147C480.523 202.147 480.278 202.056 480.096 201.874C479.914 201.678 479.823 201.412 479.823 201.076V199.711H480.012C479.9 200.229 479.69 200.677 479.382 201.055C479.088 201.419 478.717 201.699 478.269 201.895C477.821 202.091 477.31 202.189 476.736 202.189ZM491.683 202C491.305 202 491.011 201.902 490.801 201.706C490.605 201.496 490.507 201.202 490.507 200.824V188.371C490.507 187.993 490.605 187.706 490.801 187.51C491.011 187.3 491.305 187.195 491.683 187.195H495.736C498.172 187.195 500.048 187.832 501.364 189.106C502.694 190.366 503.359 192.193 503.359 194.587C503.359 195.777 503.191 196.834 502.855 197.758C502.519 198.682 502.022 199.459 501.364 200.089C500.72 200.705 499.929 201.181 498.991 201.517C498.053 201.839 496.968 202 495.736 202H491.683ZM492.691 200.173H495.61C496.534 200.173 497.332 200.061 498.004 199.837C498.69 199.599 499.264 199.249 499.726 198.787C500.188 198.325 500.531 197.744 500.755 197.044C500.979 196.344 501.091 195.525 501.091 194.587C501.091 192.725 500.629 191.332 499.705 190.408C498.795 189.484 497.43 189.022 495.61 189.022H492.691V200.173ZM510.856 202.189C509.736 202.189 508.77 201.979 507.958 201.559C507.16 201.125 506.537 200.516 506.089 199.732C505.655 198.934 505.438 197.989 505.438 196.897C505.438 195.833 505.655 194.902 506.089 194.104C506.523 193.306 507.118 192.683 507.874 192.235C508.63 191.787 509.491 191.563 510.457 191.563C511.171 191.563 511.808 191.682 512.368 191.92C512.928 192.144 513.404 192.48 513.796 192.928C514.202 193.362 514.503 193.894 514.699 194.524C514.909 195.154 515.014 195.861 515.014 196.645C515.014 196.883 514.944 197.065 514.804 197.191C514.664 197.303 514.454 197.359 514.174 197.359H507.118V196.057H513.586L513.229 196.351C513.229 195.651 513.124 195.056 512.914 194.566C512.718 194.076 512.417 193.705 512.011 193.453C511.619 193.187 511.129 193.054 510.541 193.054C509.883 193.054 509.323 193.208 508.861 193.516C508.413 193.824 508.07 194.251 507.832 194.797C507.594 195.343 507.475 195.98 507.475 196.708V196.834C507.475 198.066 507.762 198.997 508.336 199.627C508.924 200.243 509.771 200.551 510.877 200.551C511.297 200.551 511.738 200.495 512.2 200.383C512.676 200.271 513.124 200.082 513.544 199.816C513.782 199.676 513.992 199.613 514.174 199.627C514.37 199.641 514.524 199.704 514.636 199.816C514.762 199.928 514.839 200.068 514.867 200.236C514.895 200.404 514.867 200.579 514.783 200.761C514.699 200.929 514.552 201.083 514.342 201.223C513.866 201.545 513.313 201.79 512.683 201.958C512.053 202.112 511.444 202.189 510.856 202.189ZM520.602 202.189C519.888 202.189 519.244 202.049 518.67 201.769C518.11 201.489 517.669 201.111 517.347 200.635C517.025 200.159 516.864 199.62 516.864 199.018C516.864 198.262 517.053 197.667 517.431 197.233C517.823 196.785 518.46 196.47 519.342 196.288C520.238 196.092 521.442 195.994 522.954 195.994H523.941V197.296H522.975C521.967 197.296 521.169 197.345 520.581 197.443C519.993 197.541 519.573 197.709 519.321 197.947C519.083 198.171 518.964 198.486 518.964 198.892C518.964 199.424 519.146 199.858 519.51 200.194C519.874 200.516 520.378 200.677 521.022 200.677C521.54 200.677 521.995 200.558 522.387 200.32C522.779 200.068 523.087 199.732 523.311 199.312C523.549 198.892 523.668 198.409 523.668 197.863V195.448C523.668 194.65 523.5 194.076 523.164 193.726C522.828 193.376 522.275 193.201 521.505 193.201C521.057 193.201 520.588 193.257 520.098 193.369C519.622 193.481 519.125 193.67 518.607 193.936C518.369 194.048 518.166 194.083 517.998 194.041C517.83 193.999 517.697 193.908 517.599 193.768C517.501 193.614 517.445 193.453 517.431 193.285C517.431 193.103 517.473 192.928 517.557 192.76C517.655 192.592 517.816 192.466 518.04 192.382C518.656 192.088 519.265 191.878 519.867 191.752C520.469 191.626 521.036 191.563 521.568 191.563C522.506 191.563 523.276 191.71 523.878 192.004C524.494 192.298 524.949 192.746 525.243 193.348C525.537 193.95 525.684 194.727 525.684 195.679V201.076C525.684 201.412 525.6 201.678 525.432 201.874C525.264 202.056 525.019 202.147 524.697 202.147C524.389 202.147 524.144 202.056 523.962 201.874C523.78 201.678 523.689 201.412 523.689 201.076V199.711H523.878C523.766 200.229 523.556 200.677 523.248 201.055C522.954 201.419 522.583 201.699 522.135 201.895C521.687 202.091 521.176 202.189 520.602 202.189ZM531.902 202.189C530.81 202.189 529.984 201.874 529.424 201.244C528.878 200.6 528.605 199.676 528.605 198.472V188.119C528.605 187.769 528.696 187.503 528.878 187.321C529.06 187.139 529.319 187.048 529.655 187.048C529.991 187.048 530.25 187.139 530.432 187.321C530.628 187.503 530.726 187.769 530.726 188.119V198.346C530.726 199.046 530.866 199.571 531.146 199.921C531.44 200.257 531.86 200.425 532.406 200.425C532.532 200.425 532.644 200.425 532.742 200.425C532.84 200.411 532.938 200.397 533.036 200.383C533.204 200.369 533.323 200.418 533.393 200.53C533.463 200.628 533.498 200.838 533.498 201.16C533.498 201.454 533.435 201.685 533.309 201.853C533.183 202.007 532.98 202.105 532.7 202.147C532.574 202.161 532.441 202.168 532.301 202.168C532.161 202.182 532.028 202.189 531.902 202.189ZM539.731 202.189C538.611 202.189 537.645 201.979 536.833 201.559C536.035 201.125 535.412 200.516 534.964 199.732C534.53 198.934 534.313 197.989 534.313 196.897C534.313 195.833 534.53 194.902 534.964 194.104C535.398 193.306 535.993 192.683 536.749 192.235C537.505 191.787 538.366 191.563 539.332 191.563C540.046 191.563 540.683 191.682 541.243 191.92C541.803 192.144 542.279 192.48 542.671 192.928C543.077 193.362 543.378 193.894 543.574 194.524C543.784 195.154 543.889 195.861 543.889 196.645C543.889 196.883 543.819 197.065 543.679 197.191C543.539 197.303 543.329 197.359 543.049 197.359H535.993V196.057H542.461L542.104 196.351C542.104 195.651 541.999 195.056 541.789 194.566C541.593 194.076 541.292 193.705 540.886 193.453C540.494 193.187 540.004 193.054 539.416 193.054C538.758 193.054 538.198 193.208 537.736 193.516C537.288 193.824 536.945 194.251 536.707 194.797C536.469 195.343 536.35 195.98 536.35 196.708V196.834C536.35 198.066 536.637 198.997 537.211 199.627C537.799 200.243 538.646 200.551 539.752 200.551C540.172 200.551 540.613 200.495 541.075 200.383C541.551 200.271 541.999 200.082 542.419 199.816C542.657 199.676 542.867 199.613 543.049 199.627C543.245 199.641 543.399 199.704 543.511 199.816C543.637 199.928 543.714 200.068 543.742 200.236C543.77 200.404 543.742 200.579 543.658 200.761C543.574 200.929 543.427 201.083 543.217 201.223C542.741 201.545 542.188 201.79 541.558 201.958C540.928 202.112 540.319 202.189 539.731 202.189ZM547.272 202.147C546.922 202.147 546.656 202.056 546.474 201.874C546.292 201.678 546.201 201.412 546.201 201.076V192.676C546.201 192.326 546.292 192.06 546.474 191.878C546.656 191.696 546.908 191.605 547.23 191.605C547.566 191.605 547.818 191.696 547.986 191.878C548.168 192.06 548.259 192.326 548.259 192.676V194.209H548.049C548.273 193.369 548.686 192.732 549.288 192.298C549.89 191.864 550.66 191.612 551.598 191.542C551.85 191.528 552.046 191.591 552.186 191.731C552.34 191.871 552.424 192.088 552.438 192.382C552.466 192.676 552.403 192.914 552.249 193.096C552.095 193.264 551.857 193.362 551.535 193.39L551.136 193.432C550.226 193.516 549.533 193.803 549.057 194.293C548.581 194.783 548.343 195.455 548.343 196.309V201.076C548.343 201.412 548.252 201.678 548.07 201.874C547.902 202.056 547.636 202.147 547.272 202.147Z" fill="white"/>
<circle cx="332" cy="177" r="56" fill="#D9D9D9"/>
<path d="M315.333 197.833C315.333 188.629 322.795 181.167 332 181.167C341.205 181.167 348.667 188.629 348.667 197.833H344.5C344.5 190.93 338.904 185.333 332 185.333C325.097 185.333 319.5 190.93 319.5 197.833H315.333ZM332 179.083C325.094 179.083 319.5 173.49 319.5 166.583C319.5 159.677 325.094 154.083 332 154.083C338.906 154.083 344.5 159.677 344.5 166.583C344.5 173.49 338.906 179.083 332 179.083ZM332 174.917C336.604 174.917 340.333 171.187 340.333 166.583C340.333 161.979 336.604 158.25 332 158.25C327.396 158.25 323.667 161.979 323.667 166.583C323.667 171.187 327.396 174.917 332 174.917Z" fill="black"/>
<rect x="16" y="467" width="320" height="128" rx="64" fill="#525252"/>
<path d="M204.783 519.231C204.195 519.231 203.593 519.182 202.977 519.084C202.375 519 201.794 518.874 201.234 518.706C200.688 518.538 200.198 518.328 199.764 518.076C199.456 517.908 199.239 517.691 199.113 517.425C198.987 517.145 198.938 516.865 198.966 516.585C199.008 516.305 199.113 516.06 199.281 515.85C199.463 515.626 199.687 515.486 199.953 515.43C200.233 515.36 200.541 515.409 200.877 515.577C201.451 515.899 202.074 516.137 202.746 516.291C203.432 516.445 204.111 516.522 204.783 516.522C205.805 516.522 206.533 516.368 206.967 516.06C207.401 515.738 207.618 515.339 207.618 514.863C207.618 514.457 207.464 514.135 207.156 513.897C206.848 513.659 206.309 513.456 205.539 513.288L203.166 512.784C201.822 512.504 200.821 512.028 200.163 511.356C199.519 510.67 199.197 509.774 199.197 508.668C199.197 507.968 199.344 507.331 199.638 506.757C199.932 506.183 200.345 505.686 200.877 505.266C201.409 504.846 202.039 504.524 202.767 504.3C203.509 504.076 204.321 503.964 205.203 503.964C205.987 503.964 206.757 504.062 207.513 504.258C208.269 504.44 208.934 504.713 209.508 505.077C209.788 505.245 209.977 505.462 210.075 505.728C210.187 505.98 210.222 506.239 210.18 506.505C210.152 506.757 210.047 506.981 209.865 507.177C209.697 507.373 209.48 507.499 209.214 507.555C208.948 507.611 208.626 507.548 208.248 507.366C207.786 507.128 207.296 506.953 206.778 506.841C206.26 506.729 205.728 506.673 205.182 506.673C204.594 506.673 204.09 506.75 203.67 506.904C203.264 507.058 202.949 507.275 202.725 507.555C202.515 507.835 202.41 508.157 202.41 508.521C202.41 508.927 202.557 509.256 202.851 509.508C203.145 509.76 203.656 509.963 204.384 510.117L206.757 510.621C208.129 510.915 209.151 511.391 209.823 512.049C210.495 512.693 210.831 513.547 210.831 514.611C210.831 515.311 210.691 515.948 210.411 516.522C210.131 517.082 209.725 517.565 209.193 517.971C208.661 518.377 208.024 518.692 207.282 518.916C206.54 519.126 205.707 519.231 204.783 519.231ZM217.589 519.231C216.623 519.231 215.811 519.07 215.153 518.748C214.509 518.426 214.026 517.957 213.704 517.341C213.396 516.725 213.242 515.948 213.242 515.01V511.062H212.36C211.968 511.062 211.66 510.957 211.436 510.747C211.226 510.537 211.121 510.25 211.121 509.886C211.121 509.494 211.226 509.2 211.436 509.004C211.66 508.794 211.968 508.689 212.36 508.689H213.242V507.093C213.242 506.561 213.382 506.162 213.662 505.896C213.942 505.616 214.334 505.476 214.838 505.476C215.356 505.476 215.748 505.616 216.014 505.896C216.28 506.162 216.413 506.561 216.413 507.093V508.689H218.408C218.8 508.689 219.101 508.794 219.311 509.004C219.521 509.2 219.626 509.494 219.626 509.886C219.626 510.25 219.521 510.537 219.311 510.747C219.101 510.957 218.8 511.062 218.408 511.062H216.413V514.884C216.413 515.472 216.546 515.913 216.812 516.207C217.092 516.501 217.533 516.648 218.135 516.648C218.345 516.648 218.541 516.627 218.723 516.585C218.905 516.543 219.073 516.515 219.227 516.501C219.423 516.487 219.584 516.55 219.71 516.69C219.836 516.816 219.899 517.103 219.899 517.551C219.899 517.887 219.843 518.181 219.731 518.433C219.619 518.685 219.423 518.867 219.143 518.979C218.961 519.049 218.709 519.105 218.387 519.147C218.079 519.203 217.813 519.231 217.589 519.231ZM226.27 519.231C225.052 519.231 224.002 519.014 223.12 518.58C222.252 518.132 221.58 517.509 221.104 516.711C220.642 515.899 220.411 514.947 220.411 513.855C220.411 512.791 220.635 511.86 221.083 511.062C221.531 510.25 222.154 509.62 222.952 509.172C223.764 508.71 224.681 508.479 225.703 508.479C226.445 508.479 227.117 508.605 227.719 508.857C228.321 509.095 228.839 509.445 229.273 509.907C229.707 510.355 230.036 510.908 230.26 511.566C230.484 512.21 230.596 512.931 230.596 513.729C230.596 513.995 230.512 514.198 230.344 514.338C230.176 514.464 229.931 514.527 229.609 514.527H223.015V512.889H228.307L227.971 513.183C227.971 512.609 227.887 512.133 227.719 511.755C227.551 511.363 227.306 511.069 226.984 510.873C226.676 510.677 226.291 510.579 225.829 510.579C225.311 510.579 224.87 510.698 224.506 510.936C224.142 511.174 223.862 511.517 223.666 511.965C223.47 512.413 223.372 512.952 223.372 513.582V513.75C223.372 514.814 223.617 515.598 224.107 516.102C224.611 516.606 225.353 516.858 226.333 516.858C226.669 516.858 227.054 516.816 227.488 516.732C227.922 516.648 228.328 516.515 228.706 516.333C229.028 516.179 229.315 516.13 229.567 516.186C229.819 516.228 230.015 516.34 230.155 516.522C230.295 516.704 230.372 516.914 230.386 517.152C230.414 517.39 230.365 517.628 230.239 517.866C230.113 518.09 229.903 518.279 229.609 518.433C229.133 518.699 228.594 518.895 227.992 519.021C227.404 519.161 226.83 519.231 226.27 519.231ZM234.037 522.969C233.519 522.969 233.12 522.829 232.84 522.549C232.574 522.283 232.441 521.884 232.441 521.352V510.117C232.441 509.599 232.574 509.207 232.84 508.941C233.12 508.661 233.505 508.521 233.995 508.521C234.513 508.521 234.905 508.661 235.171 508.941C235.437 509.207 235.57 509.599 235.57 510.117V511.545L235.339 510.726C235.549 510.054 235.969 509.515 236.599 509.109C237.243 508.689 237.978 508.479 238.804 508.479C239.7 508.479 240.484 508.696 241.156 509.13C241.842 509.564 242.374 510.18 242.752 510.978C243.13 511.776 243.319 512.728 243.319 513.834C243.319 514.94 243.13 515.899 242.752 516.711C242.374 517.523 241.849 518.146 241.177 518.58C240.505 519.014 239.714 519.231 238.804 519.231C237.992 519.231 237.271 519.035 236.641 518.643C236.011 518.237 235.584 517.712 235.36 517.068H235.612V521.352C235.612 521.884 235.472 522.283 235.192 522.549C234.926 522.829 234.541 522.969 234.037 522.969ZM237.859 516.858C238.307 516.858 238.699 516.746 239.035 516.522C239.385 516.298 239.651 515.969 239.833 515.535C240.029 515.087 240.127 514.52 240.127 513.834C240.127 512.812 239.917 512.063 239.497 511.587C239.077 511.097 238.531 510.852 237.859 510.852C237.411 510.852 237.012 510.957 236.662 511.167C236.326 511.377 236.06 511.706 235.864 512.154C235.668 512.588 235.57 513.148 235.57 513.834C235.57 514.856 235.78 515.619 236.2 516.123C236.62 516.613 237.173 516.858 237.859 516.858ZM255.848 519.231C255.106 519.231 254.35 519.147 253.58 518.979C252.824 518.797 252.166 518.545 251.606 518.223C251.242 518.027 250.99 517.796 250.85 517.53C250.724 517.25 250.675 516.977 250.703 516.711C250.745 516.445 250.857 516.214 251.039 516.018C251.221 515.808 251.452 515.675 251.732 515.619C252.026 515.563 252.348 515.619 252.698 515.787C253.244 516.053 253.762 516.242 254.252 516.354C254.742 516.466 255.232 516.522 255.722 516.522C256.282 516.522 256.751 516.452 257.129 516.312C257.507 516.158 257.794 515.941 257.99 515.661C258.186 515.381 258.284 515.031 258.284 514.611C258.284 514.023 258.081 513.582 257.675 513.288C257.269 512.994 256.674 512.847 255.89 512.847H254.651C254.189 512.847 253.832 512.735 253.58 512.511C253.342 512.273 253.223 511.951 253.223 511.545C253.223 511.125 253.342 510.803 253.58 510.579C253.832 510.341 254.189 510.222 254.651 510.222H255.575C256.051 510.222 256.45 510.152 256.772 510.012C257.108 509.858 257.367 509.648 257.549 509.382C257.745 509.116 257.843 508.787 257.843 508.395C257.843 507.835 257.647 507.408 257.255 507.114C256.877 506.82 256.324 506.673 255.596 506.673C255.148 506.673 254.707 506.729 254.273 506.841C253.839 506.939 253.37 507.121 252.866 507.387C252.558 507.541 252.271 507.59 252.005 507.534C251.739 507.478 251.515 507.352 251.333 507.156C251.165 506.96 251.053 506.736 250.997 506.484C250.955 506.218 250.99 505.952 251.102 505.686C251.228 505.42 251.452 505.203 251.774 505.035C252.376 504.685 253.027 504.419 253.727 504.237C254.441 504.055 255.162 503.964 255.89 503.964C256.954 503.964 257.864 504.125 258.62 504.447C259.376 504.769 259.957 505.231 260.363 505.833C260.769 506.421 260.972 507.135 260.972 507.975C260.972 508.549 260.86 509.074 260.636 509.55C260.412 510.026 260.097 510.432 259.691 510.768C259.299 511.09 258.816 511.321 258.242 511.461V511.188C259.236 511.356 260.013 511.769 260.573 512.427C261.133 513.085 261.413 513.911 261.413 514.905C261.413 515.787 261.189 516.557 260.741 517.215C260.293 517.859 259.649 518.356 258.809 518.706C257.983 519.056 256.996 519.231 255.848 519.231Z" fill="white"/>
<path d="M165.358 556.189C163.86 556.189 162.579 555.881 161.515 555.265C160.451 554.649 159.632 553.774 159.058 552.64C158.498 551.492 158.218 550.141 158.218 548.587C158.218 547.425 158.379 546.382 158.701 545.458C159.023 544.52 159.485 543.722 160.087 543.064C160.703 542.392 161.452 541.881 162.334 541.531C163.23 541.181 164.238 541.006 165.358 541.006C166.184 541.006 166.975 541.118 167.731 541.342C168.501 541.566 169.166 541.888 169.726 542.308C169.964 542.462 170.118 542.651 170.188 542.875C170.272 543.085 170.286 543.288 170.23 543.484C170.188 543.68 170.097 543.848 169.957 543.988C169.817 544.114 169.635 544.184 169.411 544.198C169.201 544.212 168.97 544.135 168.718 543.967C168.256 543.617 167.745 543.358 167.185 543.19C166.625 543.022 166.037 542.938 165.421 542.938C164.357 542.938 163.461 543.162 162.733 543.61C162.005 544.044 161.452 544.681 161.074 545.521C160.696 546.361 160.507 547.383 160.507 548.587C160.507 549.791 160.696 550.82 161.074 551.674C161.452 552.514 162.005 553.158 162.733 553.606C163.461 554.04 164.357 554.257 165.421 554.257C166.037 554.257 166.625 554.173 167.185 554.005C167.759 553.823 168.298 553.557 168.802 553.207C169.054 553.053 169.278 552.983 169.474 552.997C169.684 553.011 169.859 553.081 169.999 553.207C170.139 553.333 170.23 553.494 170.272 553.69C170.328 553.872 170.321 554.068 170.251 554.278C170.195 554.474 170.062 554.642 169.852 554.782C169.278 555.244 168.599 555.594 167.815 555.832C167.031 556.07 166.212 556.189 165.358 556.189ZM176.396 556.189C175.36 556.189 174.464 555.972 173.708 555.538C172.966 555.104 172.385 554.488 171.965 553.69C171.545 552.892 171.335 551.954 171.335 550.876C171.335 550.05 171.454 549.315 171.692 548.671C171.93 548.027 172.266 547.474 172.7 547.012C173.148 546.536 173.68 546.179 174.296 545.941C174.926 545.689 175.626 545.563 176.396 545.563C177.418 545.563 178.3 545.78 179.042 546.214C179.798 546.648 180.386 547.264 180.806 548.062C181.226 548.846 181.436 549.784 181.436 550.876C181.436 551.688 181.317 552.423 181.079 553.081C180.841 553.739 180.498 554.299 180.05 554.761C179.616 555.223 179.084 555.58 178.454 555.832C177.838 556.07 177.152 556.189 176.396 556.189ZM176.396 554.551C176.97 554.551 177.474 554.411 177.908 554.131C178.342 553.851 178.678 553.438 178.916 552.892C179.168 552.346 179.294 551.674 179.294 550.876C179.294 549.672 179.028 548.762 178.496 548.146C177.964 547.53 177.264 547.222 176.396 547.222C175.808 547.222 175.297 547.362 174.863 547.642C174.429 547.908 174.086 548.314 173.834 548.86C173.596 549.406 173.477 550.078 173.477 550.876C173.477 552.066 173.743 552.976 174.275 553.606C174.807 554.236 175.514 554.551 176.396 554.551ZM184.868 556.147C184.532 556.147 184.273 556.056 184.091 555.874C183.909 555.678 183.818 555.412 183.818 555.076V546.676C183.818 546.326 183.909 546.06 184.091 545.878C184.273 545.696 184.525 545.605 184.847 545.605C185.183 545.605 185.435 545.696 185.603 545.878C185.785 546.06 185.876 546.326 185.876 546.676V548.314L185.645 547.936C185.953 547.152 186.436 546.564 187.094 546.172C187.752 545.766 188.508 545.563 189.362 545.563C190.174 545.563 190.846 545.717 191.378 546.025C191.924 546.319 192.33 546.774 192.596 547.39C192.862 547.992 192.995 548.755 192.995 549.679V555.076C192.995 555.412 192.904 555.678 192.722 555.874C192.54 556.056 192.281 556.147 191.945 556.147C191.595 556.147 191.329 556.056 191.147 555.874C190.965 555.678 190.874 555.412 190.874 555.076V549.805C190.874 548.923 190.699 548.279 190.349 547.873C190.013 547.467 189.481 547.264 188.753 547.264C187.899 547.264 187.213 547.53 186.695 548.062C186.191 548.594 185.939 549.308 185.939 550.204V555.076C185.939 555.79 185.582 556.147 184.868 556.147ZM200.286 556.189C199.446 556.189 198.739 556.042 198.165 555.748C197.591 555.454 197.164 555.02 196.884 554.446C196.604 553.872 196.464 553.172 196.464 552.346V547.39H195.204C194.924 547.39 194.707 547.32 194.553 547.18C194.399 547.026 194.322 546.823 194.322 546.571C194.322 546.305 194.399 546.102 194.553 545.962C194.707 545.822 194.924 545.752 195.204 545.752H196.464V543.589C196.464 543.239 196.555 542.973 196.737 542.791C196.933 542.609 197.199 542.518 197.535 542.518C197.871 542.518 198.13 542.609 198.312 542.791C198.494 542.973 198.585 543.239 198.585 543.589V545.752H201.042C201.322 545.752 201.539 545.822 201.693 545.962C201.847 546.102 201.924 546.305 201.924 546.571C201.924 546.823 201.847 547.026 201.693 547.18C201.539 547.32 201.322 547.39 201.042 547.39H198.585V552.178C198.585 552.92 198.739 553.48 199.047 553.858C199.369 554.236 199.887 554.425 200.601 554.425C200.853 554.425 201.07 554.404 201.252 554.362C201.448 554.306 201.609 554.271 201.735 554.257C201.889 554.257 202.015 554.313 202.113 554.425C202.211 554.523 202.26 554.719 202.26 555.013C202.26 555.223 202.218 555.419 202.134 555.601C202.064 555.783 201.931 555.902 201.735 555.958C201.567 556.014 201.336 556.063 201.042 556.105C200.762 556.161 200.51 556.189 200.286 556.189ZM206.864 556.189C206.15 556.189 205.506 556.049 204.932 555.769C204.372 555.489 203.931 555.111 203.609 554.635C203.287 554.159 203.126 553.62 203.126 553.018C203.126 552.262 203.315 551.667 203.693 551.233C204.085 550.785 204.722 550.47 205.604 550.288C206.5 550.092 207.704 549.994 209.216 549.994H210.203V551.296H209.237C208.229 551.296 207.431 551.345 206.843 551.443C206.255 551.541 205.835 551.709 205.583 551.947C205.345 552.171 205.226 552.486 205.226 552.892C205.226 553.424 205.408 553.858 205.772 554.194C206.136 554.516 206.64 554.677 207.284 554.677C207.802 554.677 208.257 554.558 208.649 554.32C209.041 554.068 209.349 553.732 209.573 553.312C209.811 552.892 209.93 552.409 209.93 551.863V549.448C209.93 548.65 209.762 548.076 209.426 547.726C209.09 547.376 208.537 547.201 207.767 547.201C207.319 547.201 206.85 547.257 206.36 547.369C205.884 547.481 205.387 547.67 204.869 547.936C204.631 548.048 204.428 548.083 204.26 548.041C204.092 547.999 203.959 547.908 203.861 547.768C203.763 547.614 203.707 547.453 203.693 547.285C203.693 547.103 203.735 546.928 203.819 546.76C203.917 546.592 204.078 546.466 204.302 546.382C204.918 546.088 205.527 545.878 206.129 545.752C206.731 545.626 207.298 545.563 207.83 545.563C208.768 545.563 209.538 545.71 210.14 546.004C210.756 546.298 211.211 546.746 211.505 547.348C211.799 547.95 211.946 548.727 211.946 549.679V555.076C211.946 555.412 211.862 555.678 211.694 555.874C211.526 556.056 211.281 556.147 210.959 556.147C210.651 556.147 210.406 556.056 210.224 555.874C210.042 555.678 209.951 555.412 209.951 555.076V553.711H210.14C210.028 554.229 209.818 554.677 209.51 555.055C209.216 555.419 208.845 555.699 208.397 555.895C207.949 556.091 207.438 556.189 206.864 556.189ZM219.382 556.189C218.332 556.189 217.422 555.972 216.652 555.538C215.896 555.09 215.308 554.467 214.888 553.669C214.468 552.857 214.258 551.905 214.258 550.813C214.258 550.001 214.377 549.273 214.615 548.629C214.853 547.971 215.189 547.418 215.623 546.97C216.071 546.522 216.61 546.179 217.24 545.941C217.884 545.689 218.598 545.563 219.382 545.563C219.872 545.563 220.383 545.64 220.915 545.794C221.461 545.934 221.965 546.172 222.427 546.508C222.609 546.62 222.721 546.76 222.763 546.928C222.819 547.082 222.826 547.243 222.784 547.411C222.756 547.579 222.679 547.726 222.553 547.852C222.441 547.964 222.301 548.034 222.133 548.062C221.965 548.076 221.783 548.027 221.587 547.915C221.251 547.677 220.908 547.509 220.558 547.411C220.208 547.299 219.872 547.243 219.55 547.243C219.046 547.243 218.598 547.327 218.206 547.495C217.828 547.649 217.506 547.88 217.24 548.188C216.974 548.482 216.771 548.853 216.631 549.301C216.505 549.749 216.442 550.26 216.442 550.834C216.442 551.982 216.708 552.885 217.24 553.543C217.786 554.187 218.556 554.509 219.55 554.509C219.872 554.509 220.208 554.46 220.558 554.362C220.908 554.264 221.251 554.096 221.587 553.858C221.783 553.746 221.965 553.704 222.133 553.732C222.301 553.76 222.434 553.837 222.532 553.963C222.644 554.075 222.714 554.215 222.742 554.383C222.784 554.537 222.777 554.698 222.721 554.866C222.665 555.034 222.546 555.174 222.364 555.286C221.916 555.608 221.426 555.839 220.894 555.979C220.376 556.119 219.872 556.189 219.382 556.189ZM229.058 556.189C228.218 556.189 227.511 556.042 226.937 555.748C226.363 555.454 225.936 555.02 225.656 554.446C225.376 553.872 225.236 553.172 225.236 552.346V547.39H223.976C223.696 547.39 223.479 547.32 223.325 547.18C223.171 547.026 223.094 546.823 223.094 546.571C223.094 546.305 223.171 546.102 223.325 545.962C223.479 545.822 223.696 545.752 223.976 545.752H225.236V543.589C225.236 543.239 225.327 542.973 225.509 542.791C225.705 542.609 225.971 542.518 226.307 542.518C226.643 542.518 226.902 542.609 227.084 542.791C227.266 542.973 227.357 543.239 227.357 543.589V545.752H229.814C230.094 545.752 230.311 545.822 230.465 545.962C230.619 546.102 230.696 546.305 230.696 546.571C230.696 546.823 230.619 547.026 230.465 547.18C230.311 547.32 230.094 547.39 229.814 547.39H227.357V552.178C227.357 552.92 227.511 553.48 227.819 553.858C228.141 554.236 228.659 554.425 229.373 554.425C229.625 554.425 229.842 554.404 230.024 554.362C230.22 554.306 230.381 554.271 230.507 554.257C230.661 554.257 230.787 554.313 230.885 554.425C230.983 554.523 231.032 554.719 231.032 555.013C231.032 555.223 230.99 555.419 230.906 555.601C230.836 555.783 230.703 555.902 230.507 555.958C230.339 556.014 230.108 556.063 229.814 556.105C229.534 556.161 229.282 556.189 229.058 556.189ZM239.304 556C238.926 556 238.632 555.902 238.422 555.706C238.226 555.496 238.128 555.202 238.128 554.824V542.371C238.128 541.993 238.226 541.706 238.422 541.51C238.632 541.3 238.926 541.195 239.304 541.195H243.357C245.793 541.195 247.669 541.832 248.985 543.106C250.315 544.366 250.98 546.193 250.98 548.587C250.98 549.777 250.812 550.834 250.476 551.758C250.14 552.682 249.643 553.459 248.985 554.089C248.341 554.705 247.55 555.181 246.612 555.517C245.674 555.839 244.589 556 243.357 556H239.304ZM240.312 554.173H243.231C244.155 554.173 244.953 554.061 245.625 553.837C246.311 553.599 246.885 553.249 247.347 552.787C247.809 552.325 248.152 551.744 248.376 551.044C248.6 550.344 248.712 549.525 248.712 548.587C248.712 546.725 248.25 545.332 247.326 544.408C246.416 543.484 245.051 543.022 243.231 543.022H240.312V554.173ZM258.477 556.189C257.357 556.189 256.391 555.979 255.579 555.559C254.781 555.125 254.158 554.516 253.71 553.732C253.276 552.934 253.059 551.989 253.059 550.897C253.059 549.833 253.276 548.902 253.71 548.104C254.144 547.306 254.739 546.683 255.495 546.235C256.251 545.787 257.112 545.563 258.078 545.563C258.792 545.563 259.429 545.682 259.989 545.92C260.549 546.144 261.025 546.48 261.417 546.928C261.823 547.362 262.124 547.894 262.32 548.524C262.53 549.154 262.635 549.861 262.635 550.645C262.635 550.883 262.565 551.065 262.425 551.191C262.285 551.303 262.075 551.359 261.795 551.359H254.739V550.057H261.207L260.85 550.351C260.85 549.651 260.745 549.056 260.535 548.566C260.339 548.076 260.038 547.705 259.632 547.453C259.24 547.187 258.75 547.054 258.162 547.054C257.504 547.054 256.944 547.208 256.482 547.516C256.034 547.824 255.691 548.251 255.453 548.797C255.215 549.343 255.096 549.98 255.096 550.708V550.834C255.096 552.066 255.383 552.997 255.957 553.627C256.545 554.243 257.392 554.551 258.498 554.551C258.918 554.551 259.359 554.495 259.821 554.383C260.297 554.271 260.745 554.082 261.165 553.816C261.403 553.676 261.613 553.613 261.795 553.627C261.991 553.641 262.145 553.704 262.257 553.816C262.383 553.928 262.46 554.068 262.488 554.236C262.516 554.404 262.488 554.579 262.404 554.761C262.32 554.929 262.173 555.083 261.963 555.223C261.487 555.545 260.934 555.79 260.304 555.958C259.674 556.112 259.065 556.189 258.477 556.189ZM269.295 556.189C268.455 556.189 267.748 556.042 267.174 555.748C266.6 555.454 266.173 555.02 265.893 554.446C265.613 553.872 265.473 553.172 265.473 552.346V547.39H264.213C263.933 547.39 263.716 547.32 263.562 547.18C263.408 547.026 263.331 546.823 263.331 546.571C263.331 546.305 263.408 546.102 263.562 545.962C263.716 545.822 263.933 545.752 264.213 545.752H265.473V543.589C265.473 543.239 265.564 542.973 265.746 542.791C265.942 542.609 266.208 542.518 266.544 542.518C266.88 542.518 267.139 542.609 267.321 542.791C267.503 542.973 267.594 543.239 267.594 543.589V545.752H270.051C270.331 545.752 270.548 545.822 270.702 545.962C270.856 546.102 270.933 546.305 270.933 546.571C270.933 546.823 270.856 547.026 270.702 547.18C270.548 547.32 270.331 547.39 270.051 547.39H267.594V552.178C267.594 552.92 267.748 553.48 268.056 553.858C268.378 554.236 268.896 554.425 269.61 554.425C269.862 554.425 270.079 554.404 270.261 554.362C270.457 554.306 270.618 554.271 270.744 554.257C270.898 554.257 271.024 554.313 271.122 554.425C271.22 554.523 271.269 554.719 271.269 555.013C271.269 555.223 271.227 555.419 271.143 555.601C271.073 555.783 270.94 555.902 270.744 555.958C270.576 556.014 270.345 556.063 270.051 556.105C269.771 556.161 269.519 556.189 269.295 556.189ZM275.872 556.189C275.158 556.189 274.514 556.049 273.94 555.769C273.38 555.489 272.939 555.111 272.617 554.635C272.295 554.159 272.134 553.62 272.134 553.018C272.134 552.262 272.323 551.667 272.701 551.233C273.093 550.785 273.73 550.47 274.612 550.288C275.508 550.092 276.712 549.994 278.224 549.994H279.211V551.296H278.245C277.237 551.296 276.439 551.345 275.851 551.443C275.263 551.541 274.843 551.709 274.591 551.947C274.353 552.171 274.234 552.486 274.234 552.892C274.234 553.424 274.416 553.858 274.78 554.194C275.144 554.516 275.648 554.677 276.292 554.677C276.81 554.677 277.265 554.558 277.657 554.32C278.049 554.068 278.357 553.732 278.581 553.312C278.819 552.892 278.938 552.409 278.938 551.863V549.448C278.938 548.65 278.77 548.076 278.434 547.726C278.098 547.376 277.545 547.201 276.775 547.201C276.327 547.201 275.858 547.257 275.368 547.369C274.892 547.481 274.395 547.67 273.877 547.936C273.639 548.048 273.436 548.083 273.268 548.041C273.1 547.999 272.967 547.908 272.869 547.768C272.771 547.614 272.715 547.453 272.701 547.285C272.701 547.103 272.743 546.928 272.827 546.76C272.925 546.592 273.086 546.466 273.31 546.382C273.926 546.088 274.535 545.878 275.137 545.752C275.739 545.626 276.306 545.563 276.838 545.563C277.776 545.563 278.546 545.71 279.148 546.004C279.764 546.298 280.219 546.746 280.513 547.348C280.807 547.95 280.954 548.727 280.954 549.679V555.076C280.954 555.412 280.87 555.678 280.702 555.874C280.534 556.056 280.289 556.147 279.967 556.147C279.659 556.147 279.414 556.056 279.232 555.874C279.05 555.678 278.959 555.412 278.959 555.076V553.711H279.148C279.036 554.229 278.826 554.677 278.518 555.055C278.224 555.419 277.853 555.699 277.405 555.895C276.957 556.091 276.446 556.189 275.872 556.189ZM284.926 556.126C284.59 556.126 284.331 556.028 284.149 555.832C283.967 555.622 283.876 555.335 283.876 554.971V546.781C283.876 546.417 283.967 546.137 284.149 545.941C284.331 545.745 284.59 545.647 284.926 545.647C285.262 545.647 285.521 545.745 285.703 545.941C285.899 546.137 285.997 546.417 285.997 546.781V554.971C285.997 555.335 285.906 555.622 285.724 555.832C285.542 556.028 285.276 556.126 284.926 556.126ZM284.926 543.463C284.506 543.463 284.177 543.358 283.939 543.148C283.715 542.938 283.603 542.644 283.603 542.266C283.603 541.874 283.715 541.58 283.939 541.384C284.177 541.174 284.506 541.069 284.926 541.069C285.346 541.069 285.668 541.174 285.892 541.384C286.13 541.58 286.249 541.874 286.249 542.266C286.249 542.644 286.13 542.938 285.892 543.148C285.668 543.358 285.346 543.463 284.926 543.463ZM292.279 556.189C291.187 556.189 290.361 555.874 289.801 555.244C289.255 554.6 288.982 553.676 288.982 552.472V542.119C288.982 541.769 289.073 541.503 289.255 541.321C289.437 541.139 289.696 541.048 290.032 541.048C290.368 541.048 290.627 541.139 290.809 541.321C291.005 541.503 291.103 541.769 291.103 542.119V552.346C291.103 553.046 291.243 553.571 291.523 553.921C291.817 554.257 292.237 554.425 292.783 554.425C292.909 554.425 293.021 554.425 293.119 554.425C293.217 554.411 293.315 554.397 293.413 554.383C293.581 554.369 293.7 554.418 293.77 554.53C293.84 554.628 293.875 554.838 293.875 555.16C293.875 555.454 293.812 555.685 293.686 555.853C293.56 556.007 293.357 556.105 293.077 556.147C292.951 556.161 292.818 556.168 292.678 556.168C292.538 556.182 292.405 556.189 292.279 556.189ZM298.89 556.189C298.274 556.189 297.637 556.119 296.979 555.979C296.335 555.839 295.74 555.601 295.194 555.265C295.012 555.139 294.886 554.999 294.816 554.845C294.746 554.691 294.718 554.537 294.732 554.383C294.76 554.215 294.823 554.075 294.921 553.963C295.033 553.837 295.166 553.76 295.32 553.732C295.488 553.704 295.663 553.739 295.845 553.837C296.391 554.145 296.916 554.362 297.42 554.488C297.924 554.6 298.421 554.656 298.911 554.656C299.653 554.656 300.213 554.523 300.591 554.257C300.969 553.991 301.158 553.634 301.158 553.186C301.158 552.822 301.032 552.542 300.78 552.346C300.528 552.136 300.15 551.975 299.646 551.863L297.651 551.464C296.783 551.282 296.125 550.96 295.677 550.498C295.229 550.036 295.005 549.448 295.005 548.734C295.005 548.09 295.18 547.53 295.53 547.054C295.88 546.578 296.37 546.214 297 545.962C297.63 545.696 298.358 545.563 299.184 545.563C299.8 545.563 300.381 545.64 300.927 545.794C301.473 545.948 301.977 546.179 302.439 546.487C302.621 546.585 302.74 546.718 302.796 546.886C302.852 547.04 302.859 547.194 302.817 547.348C302.789 547.502 302.719 547.642 302.607 547.768C302.495 547.88 302.355 547.95 302.187 547.978C302.033 547.992 301.858 547.95 301.662 547.852C301.242 547.586 300.822 547.397 300.402 547.285C299.996 547.173 299.59 547.117 299.184 547.117C298.442 547.117 297.882 547.257 297.504 547.537C297.14 547.803 296.958 548.167 296.958 548.629C296.958 548.979 297.07 549.266 297.294 549.49C297.518 549.714 297.868 549.875 298.344 549.973L300.339 550.372C301.249 550.554 301.935 550.862 302.397 551.296C302.873 551.73 303.111 552.318 303.111 553.06C303.111 554.026 302.726 554.789 301.956 555.349C301.186 555.909 300.164 556.189 298.89 556.189Z" fill="white"/>
<circle cx="83" cy="531" r="56" fill="#D9D9D9"/>
<path d="M78.4659 526.044C80.2997 529.269 82.9811 531.95 86.2059 533.784L87.938 531.359C88.514 530.553 89.601 530.304 90.4706 530.779C93.2255 532.284 96.2702 533.198 99.4462 533.45C100.465 533.53 101.25 534.38 101.25 535.402V544.142C101.25 545.146 100.491 545.987 99.4918 546.09C98.4541 546.196 97.4072 546.25 96.3542 546.25C79.59 546.25 66 532.66 66 515.896C66 514.843 66.0537 513.796 66.1604 512.758C66.263 511.759 67.1044 511 68.1084 511H76.848C77.8697 511 78.7196 511.785 78.8003 512.804C79.0516 515.98 79.9662 519.025 81.4712 521.78C81.9461 522.649 81.697 523.736 80.891 524.312L78.4659 526.044ZM73.5283 524.758L77.2491 522.1C76.194 519.823 75.471 517.407 75.1009 514.917H69.9344C69.9226 515.242 69.9167 515.569 69.9167 515.896C69.9167 530.497 81.7532 542.333 96.3542 542.333C96.6812 542.333 97.0077 542.327 97.3333 542.316V537.149C94.8427 536.779 92.4275 536.056 90.15 535.001L87.4923 538.722C86.4172 538.304 85.3789 537.813 84.3837 537.254L84.2699 537.189C80.4323 535.007 77.2435 531.818 75.0612 527.98L74.9965 527.866C74.4375 526.871 73.946 525.833 73.5283 524.758Z" fill="black"/>
<rect x="608" y="285" width="360" height="128" rx="64" fill="#525252"/>
<path d="M652.657 356.189C652.013 356.189 651.383 356.14 650.767 356.042C650.151 355.944 649.57 355.797 649.024 355.601C648.478 355.391 647.988 355.139 647.554 354.845C647.344 354.691 647.197 354.516 647.113 354.32C647.043 354.124 647.022 353.935 647.05 353.753C647.092 353.557 647.176 353.389 647.302 353.249C647.428 353.109 647.582 353.025 647.764 352.997C647.946 352.955 648.149 353.011 648.373 353.165C649.003 353.571 649.668 353.872 650.368 354.068C651.068 354.25 651.831 354.341 652.657 354.341C653.847 354.341 654.722 354.131 655.282 353.711C655.856 353.277 656.143 352.717 656.143 352.031C656.143 351.471 655.94 351.03 655.534 350.708C655.128 350.372 654.449 350.106 653.497 349.91L651.25 349.448C649.92 349.168 648.926 348.706 648.268 348.062C647.624 347.418 647.302 346.55 647.302 345.458C647.302 344.8 647.435 344.198 647.701 343.652C647.981 343.106 648.366 342.637 648.856 342.245C649.346 341.839 649.934 341.531 650.62 341.321C651.306 341.111 652.055 341.006 652.867 341.006C653.735 341.006 654.547 341.118 655.303 341.342C656.073 341.566 656.759 341.909 657.361 342.371C657.543 342.497 657.662 342.658 657.718 342.854C657.788 343.036 657.802 343.218 657.76 343.4C657.732 343.582 657.655 343.736 657.529 343.862C657.403 343.988 657.242 344.065 657.046 344.093C656.85 344.107 656.633 344.037 656.395 343.883C655.849 343.519 655.289 343.26 654.715 343.106C654.155 342.938 653.532 342.854 652.846 342.854C652.16 342.854 651.558 342.959 651.04 343.169C650.536 343.379 650.144 343.673 649.864 344.051C649.598 344.429 649.465 344.877 649.465 345.395C649.465 345.983 649.654 346.452 650.032 346.802C650.41 347.152 651.04 347.418 651.922 347.6L654.148 348.062C655.548 348.356 656.591 348.811 657.277 349.427C657.963 350.043 658.306 350.862 658.306 351.884C658.306 352.542 658.173 353.137 657.907 353.669C657.641 354.187 657.263 354.635 656.773 355.013C656.283 355.391 655.688 355.685 654.988 355.895C654.302 356.091 653.525 356.189 652.657 356.189ZM661.604 359.927C661.268 359.927 661.009 359.836 660.827 359.654C660.645 359.472 660.554 359.206 660.554 358.856V346.676C660.554 346.326 660.645 346.06 660.827 345.878C661.009 345.696 661.261 345.605 661.583 345.605C661.919 345.605 662.178 345.696 662.36 345.878C662.542 346.06 662.633 346.326 662.633 346.676V348.503L662.402 348.062C662.626 347.306 663.067 346.704 663.725 346.256C664.383 345.794 665.16 345.563 666.056 345.563C666.966 345.563 667.757 345.78 668.429 346.214C669.115 346.648 669.64 347.257 670.004 348.041C670.382 348.825 670.571 349.77 670.571 350.876C670.571 351.954 670.382 352.899 670.004 353.711C669.64 354.509 669.122 355.125 668.45 355.559C667.778 355.979 666.98 356.189 666.056 356.189C665.174 356.189 664.404 355.965 663.746 355.517C663.088 355.069 662.647 354.474 662.423 353.732H662.675V358.856C662.675 359.206 662.577 359.472 662.381 359.654C662.199 359.836 661.94 359.927 661.604 359.927ZM665.531 354.551C666.119 354.551 666.63 354.411 667.064 354.131C667.498 353.851 667.834 353.438 668.072 352.892C668.31 352.346 668.429 351.674 668.429 350.876C668.429 349.672 668.163 348.762 667.631 348.146C667.113 347.53 666.413 347.222 665.531 347.222C664.957 347.222 664.446 347.362 663.998 347.642C663.564 347.908 663.228 348.314 662.99 348.86C662.752 349.406 662.633 350.078 662.633 350.876C662.633 352.066 662.899 352.976 663.431 353.606C663.963 354.236 664.663 354.551 665.531 354.551ZM677.771 356.189C676.651 356.189 675.685 355.979 674.873 355.559C674.075 355.125 673.452 354.516 673.004 353.732C672.57 352.934 672.353 351.989 672.353 350.897C672.353 349.833 672.57 348.902 673.004 348.104C673.438 347.306 674.033 346.683 674.789 346.235C675.545 345.787 676.406 345.563 677.372 345.563C678.086 345.563 678.723 345.682 679.283 345.92C679.843 346.144 680.319 346.48 680.711 346.928C681.117 347.362 681.418 347.894 681.614 348.524C681.824 349.154 681.929 349.861 681.929 350.645C681.929 350.883 681.859 351.065 681.719 351.191C681.579 351.303 681.369 351.359 681.089 351.359H674.033V350.057H680.501L680.144 350.351C680.144 349.651 680.039 349.056 679.829 348.566C679.633 348.076 679.332 347.705 678.926 347.453C678.534 347.187 678.044 347.054 677.456 347.054C676.798 347.054 676.238 347.208 675.776 347.516C675.328 347.824 674.985 348.251 674.747 348.797C674.509 349.343 674.39 349.98 674.39 350.708V350.834C674.39 352.066 674.677 352.997 675.251 353.627C675.839 354.243 676.686 354.551 677.792 354.551C678.212 354.551 678.653 354.495 679.115 354.383C679.591 354.271 680.039 354.082 680.459 353.816C680.697 353.676 680.907 353.613 681.089 353.627C681.285 353.641 681.439 353.704 681.551 353.816C681.677 353.928 681.754 354.068 681.782 354.236C681.81 354.404 681.782 354.579 681.698 354.761C681.614 354.929 681.467 355.083 681.257 355.223C680.781 355.545 680.228 355.79 679.598 355.958C678.968 356.112 678.359 356.189 677.771 356.189ZM688.756 356.189C687.706 356.189 686.796 355.972 686.026 355.538C685.27 355.09 684.682 354.467 684.262 353.669C683.842 352.857 683.632 351.905 683.632 350.813C683.632 350.001 683.751 349.273 683.989 348.629C684.227 347.971 684.563 347.418 684.997 346.97C685.445 346.522 685.984 346.179 686.614 345.941C687.258 345.689 687.972 345.563 688.756 345.563C689.246 345.563 689.757 345.64 690.289 345.794C690.835 345.934 691.339 346.172 691.801 346.508C691.983 346.62 692.095 346.76 692.137 346.928C692.193 347.082 692.2 347.243 692.158 347.411C692.13 347.579 692.053 347.726 691.927 347.852C691.815 347.964 691.675 348.034 691.507 348.062C691.339 348.076 691.157 348.027 690.961 347.915C690.625 347.677 690.282 347.509 689.932 347.411C689.582 347.299 689.246 347.243 688.924 347.243C688.42 347.243 687.972 347.327 687.58 347.495C687.202 347.649 686.88 347.88 686.614 348.188C686.348 348.482 686.145 348.853 686.005 349.301C685.879 349.749 685.816 350.26 685.816 350.834C685.816 351.982 686.082 352.885 686.614 353.543C687.16 354.187 687.93 354.509 688.924 354.509C689.246 354.509 689.582 354.46 689.932 354.362C690.282 354.264 690.625 354.096 690.961 353.858C691.157 353.746 691.339 353.704 691.507 353.732C691.675 353.76 691.808 353.837 691.906 353.963C692.018 354.075 692.088 354.215 692.116 354.383C692.158 354.537 692.151 354.698 692.095 354.866C692.039 355.034 691.92 355.174 691.738 355.286C691.29 355.608 690.8 355.839 690.268 355.979C689.75 356.119 689.246 356.189 688.756 356.189ZM695.094 356.126C694.758 356.126 694.499 356.028 694.317 355.832C694.135 355.622 694.044 355.335 694.044 354.971V346.781C694.044 346.417 694.135 346.137 694.317 345.941C694.499 345.745 694.758 345.647 695.094 345.647C695.43 345.647 695.689 345.745 695.871 345.941C696.067 346.137 696.165 346.417 696.165 346.781V354.971C696.165 355.335 696.074 355.622 695.892 355.832C695.71 356.028 695.444 356.126 695.094 356.126ZM695.094 343.463C694.674 343.463 694.345 343.358 694.107 343.148C693.883 342.938 693.771 342.644 693.771 342.266C693.771 341.874 693.883 341.58 694.107 341.384C694.345 341.174 694.674 341.069 695.094 341.069C695.514 341.069 695.836 341.174 696.06 341.384C696.298 341.58 696.417 341.874 696.417 342.266C696.417 342.644 696.298 342.938 696.06 343.148C695.836 343.358 695.514 343.463 695.094 343.463ZM700.83 356.147C700.494 356.147 700.228 356.056 700.032 355.874C699.85 355.678 699.759 355.412 699.759 355.076V347.39H698.583C698.317 347.39 698.107 347.32 697.953 347.18C697.799 347.026 697.722 346.823 697.722 346.571C697.722 346.305 697.799 346.102 697.953 345.962C698.107 345.822 698.317 345.752 698.583 345.752H700.368L699.759 346.319V345.563C699.759 344.177 700.102 343.134 700.788 342.434C701.474 341.72 702.475 341.3 703.791 341.174L704.442 341.132C704.68 341.104 704.869 341.139 705.009 341.237C705.149 341.335 705.24 341.461 705.282 341.615C705.324 341.769 705.324 341.93 705.282 342.098C705.254 342.252 705.184 342.392 705.072 342.518C704.96 342.644 704.82 342.714 704.652 342.728L704.253 342.749C703.427 342.819 702.825 343.057 702.447 343.463C702.069 343.855 701.88 344.457 701.88 345.269V346.088L701.586 345.752H703.917C704.211 345.752 704.428 345.822 704.568 345.962C704.722 346.102 704.799 346.305 704.799 346.571C704.799 346.823 704.722 347.026 704.568 347.18C704.428 347.32 704.211 347.39 703.917 347.39H701.88V355.076C701.88 355.79 701.53 356.147 700.83 356.147ZM708.661 359.927C708.409 359.927 708.199 359.857 708.031 359.717C707.877 359.591 707.786 359.416 707.758 359.192C707.744 358.982 707.786 358.751 707.884 358.499L709.312 355.286V356.189L705.385 347.054C705.287 346.802 705.252 346.564 705.28 346.34C705.308 346.116 705.413 345.941 705.595 345.815C705.777 345.675 706.022 345.605 706.33 345.605C706.596 345.605 706.806 345.668 706.96 345.794C707.114 345.92 707.254 346.137 707.38 346.445L710.551 354.278H709.963L713.176 346.445C713.302 346.123 713.449 345.906 713.617 345.794C713.785 345.668 714.016 345.605 714.31 345.605C714.562 345.605 714.758 345.675 714.898 345.815C715.052 345.941 715.143 346.116 715.171 346.34C715.213 346.55 715.178 346.781 715.066 347.033L709.816 359.108C709.676 359.43 709.515 359.647 709.333 359.759C709.165 359.871 708.941 359.927 708.661 359.927ZM725.969 356.189C725.255 356.189 724.611 356.049 724.037 355.769C723.477 355.489 723.036 355.111 722.714 354.635C722.392 354.159 722.231 353.62 722.231 353.018C722.231 352.262 722.42 351.667 722.798 351.233C723.19 350.785 723.827 350.47 724.709 350.288C725.605 350.092 726.809 349.994 728.321 349.994H729.308V351.296H728.342C727.334 351.296 726.536 351.345 725.948 351.443C725.36 351.541 724.94 351.709 724.688 351.947C724.45 352.171 724.331 352.486 724.331 352.892C724.331 353.424 724.513 353.858 724.877 354.194C725.241 354.516 725.745 354.677 726.389 354.677C726.907 354.677 727.362 354.558 727.754 354.32C728.146 354.068 728.454 353.732 728.678 353.312C728.916 352.892 729.035 352.409 729.035 351.863V349.448C729.035 348.65 728.867 348.076 728.531 347.726C728.195 347.376 727.642 347.201 726.872 347.201C726.424 347.201 725.955 347.257 725.465 347.369C724.989 347.481 724.492 347.67 723.974 347.936C723.736 348.048 723.533 348.083 723.365 348.041C723.197 347.999 723.064 347.908 722.966 347.768C722.868 347.614 722.812 347.453 722.798 347.285C722.798 347.103 722.84 346.928 722.924 346.76C723.022 346.592 723.183 346.466 723.407 346.382C724.023 346.088 724.632 345.878 725.234 345.752C725.836 345.626 726.403 345.563 726.935 345.563C727.873 345.563 728.643 345.71 729.245 346.004C729.861 346.298 730.316 346.746 730.61 347.348C730.904 347.95 731.051 348.727 731.051 349.679V355.076C731.051 355.412 730.967 355.678 730.799 355.874C730.631 356.056 730.386 356.147 730.064 356.147C729.756 356.147 729.511 356.056 729.329 355.874C729.147 355.678 729.056 355.412 729.056 355.076V353.711H729.245C729.133 354.229 728.923 354.677 728.615 355.055C728.321 355.419 727.95 355.699 727.502 355.895C727.054 356.091 726.543 356.189 725.969 356.189ZM740.602 356.147C740.266 356.147 740.007 356.056 739.825 355.874C739.643 355.678 739.552 355.412 739.552 355.076V346.676C739.552 346.326 739.643 346.06 739.825 345.878C740.007 345.696 740.259 345.605 740.581 345.605C740.917 345.605 741.169 345.696 741.337 345.878C741.519 346.06 741.61 346.326 741.61 346.676V348.398L741.379 347.936C741.659 347.194 742.093 346.613 742.681 346.193C743.269 345.773 743.976 345.563 744.802 345.563C745.656 345.563 746.349 345.766 746.881 346.172C747.413 346.578 747.777 347.201 747.973 348.041H747.679C747.945 347.271 748.4 346.669 749.044 346.235C749.688 345.787 750.437 345.563 751.291 345.563C752.075 345.563 752.719 345.717 753.223 346.025C753.727 346.319 754.105 346.774 754.357 347.39C754.609 347.992 754.735 348.755 754.735 349.679V355.076C754.735 355.412 754.637 355.678 754.441 355.874C754.259 356.056 754 356.147 753.664 356.147C753.328 356.147 753.069 356.056 752.887 355.874C752.705 355.678 752.614 355.412 752.614 355.076V349.784C752.614 348.916 752.46 348.279 752.152 347.873C751.858 347.467 751.368 347.264 750.682 347.264C749.912 347.264 749.303 347.53 748.855 348.062C748.407 348.594 748.183 349.329 748.183 350.267V355.076C748.183 355.412 748.092 355.678 747.91 355.874C747.728 356.056 747.469 356.147 747.133 356.147C746.797 356.147 746.531 356.056 746.335 355.874C746.153 355.678 746.062 355.412 746.062 355.076V349.784C746.062 348.916 745.915 348.279 745.621 347.873C745.327 347.467 744.837 347.264 744.151 347.264C743.381 347.264 742.772 347.53 742.324 348.062C741.89 348.594 741.673 349.329 741.673 350.267V355.076C741.673 355.79 741.316 356.147 740.602 356.147ZM762.152 356.189C761.116 356.189 760.22 355.972 759.464 355.538C758.722 355.104 758.141 354.488 757.721 353.69C757.301 352.892 757.091 351.954 757.091 350.876C757.091 350.05 757.21 349.315 757.448 348.671C757.686 348.027 758.022 347.474 758.456 347.012C758.904 346.536 759.436 346.179 760.052 345.941C760.682 345.689 761.382 345.563 762.152 345.563C763.174 345.563 764.056 345.78 764.798 346.214C765.554 346.648 766.142 347.264 766.562 348.062C766.982 348.846 767.192 349.784 767.192 350.876C767.192 351.688 767.073 352.423 766.835 353.081C766.597 353.739 766.254 354.299 765.806 354.761C765.372 355.223 764.84 355.58 764.21 355.832C763.594 356.07 762.908 356.189 762.152 356.189ZM762.152 354.551C762.726 354.551 763.23 354.411 763.664 354.131C764.098 353.851 764.434 353.438 764.672 352.892C764.924 352.346 765.05 351.674 765.05 350.876C765.05 349.672 764.784 348.762 764.252 348.146C763.72 347.53 763.02 347.222 762.152 347.222C761.564 347.222 761.053 347.362 760.619 347.642C760.185 347.908 759.842 348.314 759.59 348.86C759.352 349.406 759.233 350.078 759.233 350.876C759.233 352.066 759.499 352.976 760.031 353.606C760.563 354.236 761.27 354.551 762.152 354.551ZM773.48 356.189C772.584 356.189 771.793 355.979 771.107 355.559C770.435 355.125 769.91 354.509 769.532 353.711C769.154 352.899 768.965 351.954 768.965 350.876C768.965 349.77 769.154 348.825 769.532 348.041C769.91 347.257 770.435 346.648 771.107 346.214C771.793 345.78 772.584 345.563 773.48 345.563C774.376 345.563 775.146 345.787 775.79 346.235C776.448 346.669 776.889 347.257 777.113 347.999H776.882V342.119C776.882 341.769 776.973 341.503 777.155 341.321C777.337 341.139 777.596 341.048 777.932 341.048C778.268 341.048 778.527 341.139 778.709 341.321C778.905 341.503 779.003 341.769 779.003 342.119V355.076C779.003 355.412 778.912 355.678 778.73 355.874C778.548 356.056 778.289 356.147 777.953 356.147C777.617 356.147 777.358 356.056 777.176 355.874C776.994 355.678 776.903 355.412 776.903 355.076V353.228L777.134 353.69C776.91 354.446 776.469 355.055 775.811 355.517C775.167 355.965 774.39 356.189 773.48 356.189ZM774.026 354.551C774.6 354.551 775.104 354.411 775.538 354.131C775.972 353.851 776.308 353.438 776.546 352.892C776.798 352.346 776.924 351.674 776.924 350.876C776.924 349.672 776.658 348.762 776.126 348.146C775.594 347.53 774.894 347.222 774.026 347.222C773.438 347.222 772.927 347.362 772.493 347.642C772.059 347.908 771.716 348.314 771.464 348.86C771.226 349.406 771.107 350.078 771.107 350.876C771.107 352.066 771.373 352.976 771.905 353.606C772.437 354.236 773.144 354.551 774.026 354.551ZM786.79 356.189C785.67 356.189 784.704 355.979 783.892 355.559C783.094 355.125 782.471 354.516 782.023 353.732C781.589 352.934 781.372 351.989 781.372 350.897C781.372 349.833 781.589 348.902 782.023 348.104C782.457 347.306 783.052 346.683 783.808 346.235C784.564 345.787 785.425 345.563 786.391 345.563C787.105 345.563 787.742 345.682 788.302 345.92C788.862 346.144 789.338 346.48 789.73 346.928C790.136 347.362 790.437 347.894 790.633 348.524C790.843 349.154 790.948 349.861 790.948 350.645C790.948 350.883 790.878 351.065 790.738 351.191C790.598 351.303 790.388 351.359 790.108 351.359H783.052V350.057H789.52L789.163 350.351C789.163 349.651 789.058 349.056 788.848 348.566C788.652 348.076 788.351 347.705 787.945 347.453C787.553 347.187 787.063 347.054 786.475 347.054C785.817 347.054 785.257 347.208 784.795 347.516C784.347 347.824 784.004 348.251 783.766 348.797C783.528 349.343 783.409 349.98 783.409 350.708V350.834C783.409 352.066 783.696 352.997 784.27 353.627C784.858 354.243 785.705 354.551 786.811 354.551C787.231 354.551 787.672 354.495 788.134 354.383C788.61 354.271 789.058 354.082 789.478 353.816C789.716 353.676 789.926 353.613 790.108 353.627C790.304 353.641 790.458 353.704 790.57 353.816C790.696 353.928 790.773 354.068 790.801 354.236C790.829 354.404 790.801 354.579 790.717 354.761C790.633 354.929 790.486 355.083 790.276 355.223C789.8 355.545 789.247 355.79 788.617 355.958C787.987 356.112 787.378 356.189 786.79 356.189ZM796.558 356.189C795.466 356.189 794.64 355.874 794.08 355.244C793.534 354.6 793.261 353.676 793.261 352.472V342.119C793.261 341.769 793.352 341.503 793.534 341.321C793.716 341.139 793.975 341.048 794.311 341.048C794.647 341.048 794.906 341.139 795.088 341.321C795.284 341.503 795.382 341.769 795.382 342.119V352.346C795.382 353.046 795.522 353.571 795.802 353.921C796.096 354.257 796.516 354.425 797.062 354.425C797.188 354.425 797.3 354.425 797.398 354.425C797.496 354.411 797.594 354.397 797.692 354.383C797.86 354.369 797.979 354.418 798.049 354.53C798.119 354.628 798.154 354.838 798.154 355.16C798.154 355.454 798.091 355.685 797.965 355.853C797.839 356.007 797.636 356.105 797.356 356.147C797.23 356.161 797.097 356.168 796.957 356.168C796.817 356.182 796.684 356.189 796.558 356.189Z" fill="white"/>
<circle cx="891" cy="349" r="56" fill="#D9D9D9"/>
<path d="M903.25 363H878.75V364.75C878.75 365.717 877.966 366.5 877 366.5H875.25C874.284 366.5 873.5 365.717 873.5 364.75V347.25L877.841 337.121C878.392 335.834 879.658 335 881.058 335H900.942C902.342 335 903.608 335.834 904.159 337.121L908.5 347.25V364.75C908.5 365.717 907.717 366.5 906.75 366.5H905C904.033 366.5 903.25 365.717 903.25 364.75V363ZM905 350.75H877V359.5H905V350.75ZM877.308 347.25H904.692L900.942 338.5H881.058L877.308 347.25ZM881.375 357.75C879.925 357.75 878.75 356.575 878.75 355.125C878.75 353.675 879.925 352.5 881.375 352.5C882.825 352.5 884 353.675 884 355.125C884 356.575 882.825 357.75 881.375 357.75ZM900.625 357.75C899.175 357.75 898 356.575 898 355.125C898 353.675 899.175 352.5 900.625 352.5C902.075 352.5 903.25 353.675 903.25 355.125C903.25 356.575 902.075 357.75 900.625 357.75Z" fill="black"/>
<rect x="616" y="290" width="360" height="128" rx="64" fill="#525252"/>
<path d="M698.783 342.231C698.195 342.231 697.593 342.182 696.977 342.084C696.375 342 695.794 341.874 695.234 341.706C694.688 341.538 694.198 341.328 693.764 341.076C693.456 340.908 693.239 340.691 693.113 340.425C692.987 340.145 692.938 339.865 692.966 339.585C693.008 339.305 693.113 339.06 693.281 338.85C693.463 338.626 693.687 338.486 693.953 338.43C694.233 338.36 694.541 338.409 694.877 338.577C695.451 338.899 696.074 339.137 696.746 339.291C697.432 339.445 698.111 339.522 698.783 339.522C699.805 339.522 700.533 339.368 700.967 339.06C701.401 338.738 701.618 338.339 701.618 337.863C701.618 337.457 701.464 337.135 701.156 336.897C700.848 336.659 700.309 336.456 699.539 336.288L697.166 335.784C695.822 335.504 694.821 335.028 694.163 334.356C693.519 333.67 693.197 332.774 693.197 331.668C693.197 330.968 693.344 330.331 693.638 329.757C693.932 329.183 694.345 328.686 694.877 328.266C695.409 327.846 696.039 327.524 696.767 327.3C697.509 327.076 698.321 326.964 699.203 326.964C699.987 326.964 700.757 327.062 701.513 327.258C702.269 327.44 702.934 327.713 703.508 328.077C703.788 328.245 703.977 328.462 704.075 328.728C704.187 328.98 704.222 329.239 704.18 329.505C704.152 329.757 704.047 329.981 703.865 330.177C703.697 330.373 703.48 330.499 703.214 330.555C702.948 330.611 702.626 330.548 702.248 330.366C701.786 330.128 701.296 329.953 700.778 329.841C700.26 329.729 699.728 329.673 699.182 329.673C698.594 329.673 698.09 329.75 697.67 329.904C697.264 330.058 696.949 330.275 696.725 330.555C696.515 330.835 696.41 331.157 696.41 331.521C696.41 331.927 696.557 332.256 696.851 332.508C697.145 332.76 697.656 332.963 698.384 333.117L700.757 333.621C702.129 333.915 703.151 334.391 703.823 335.049C704.495 335.693 704.831 336.547 704.831 337.611C704.831 338.311 704.691 338.948 704.411 339.522C704.131 340.082 703.725 340.565 703.193 340.971C702.661 341.377 702.024 341.692 701.282 341.916C700.54 342.126 699.707 342.231 698.783 342.231ZM711.589 342.231C710.623 342.231 709.811 342.07 709.153 341.748C708.509 341.426 708.026 340.957 707.704 340.341C707.396 339.725 707.242 338.948 707.242 338.01V334.062H706.36C705.968 334.062 705.66 333.957 705.436 333.747C705.226 333.537 705.121 333.25 705.121 332.886C705.121 332.494 705.226 332.2 705.436 332.004C705.66 331.794 705.968 331.689 706.36 331.689H707.242V330.093C707.242 329.561 707.382 329.162 707.662 328.896C707.942 328.616 708.334 328.476 708.838 328.476C709.356 328.476 709.748 328.616 710.014 328.896C710.28 329.162 710.413 329.561 710.413 330.093V331.689H712.408C712.8 331.689 713.101 331.794 713.311 332.004C713.521 332.2 713.626 332.494 713.626 332.886C713.626 333.25 713.521 333.537 713.311 333.747C713.101 333.957 712.8 334.062 712.408 334.062H710.413V337.884C710.413 338.472 710.546 338.913 710.812 339.207C711.092 339.501 711.533 339.648 712.135 339.648C712.345 339.648 712.541 339.627 712.723 339.585C712.905 339.543 713.073 339.515 713.227 339.501C713.423 339.487 713.584 339.55 713.71 339.69C713.836 339.816 713.899 340.103 713.899 340.551C713.899 340.887 713.843 341.181 713.731 341.433C713.619 341.685 713.423 341.867 713.143 341.979C712.961 342.049 712.709 342.105 712.387 342.147C712.079 342.203 711.813 342.231 711.589 342.231ZM720.27 342.231C719.052 342.231 718.002 342.014 717.12 341.58C716.252 341.132 715.58 340.509 715.104 339.711C714.642 338.899 714.411 337.947 714.411 336.855C714.411 335.791 714.635 334.86 715.083 334.062C715.531 333.25 716.154 332.62 716.952 332.172C717.764 331.71 718.681 331.479 719.703 331.479C720.445 331.479 721.117 331.605 721.719 331.857C722.321 332.095 722.839 332.445 723.273 332.907C723.707 333.355 724.036 333.908 724.26 334.566C724.484 335.21 724.596 335.931 724.596 336.729C724.596 336.995 724.512 337.198 724.344 337.338C724.176 337.464 723.931 337.527 723.609 337.527H717.015V335.889H722.307L721.971 336.183C721.971 335.609 721.887 335.133 721.719 334.755C721.551 334.363 721.306 334.069 720.984 333.873C720.676 333.677 720.291 333.579 719.829 333.579C719.311 333.579 718.87 333.698 718.506 333.936C718.142 334.174 717.862 334.517 717.666 334.965C717.47 335.413 717.372 335.952 717.372 336.582V336.75C717.372 337.814 717.617 338.598 718.107 339.102C718.611 339.606 719.353 339.858 720.333 339.858C720.669 339.858 721.054 339.816 721.488 339.732C721.922 339.648 722.328 339.515 722.706 339.333C723.028 339.179 723.315 339.13 723.567 339.186C723.819 339.228 724.015 339.34 724.155 339.522C724.295 339.704 724.372 339.914 724.386 340.152C724.414 340.39 724.365 340.628 724.239 340.866C724.113 341.09 723.903 341.279 723.609 341.433C723.133 341.699 722.594 341.895 721.992 342.021C721.404 342.161 720.83 342.231 720.27 342.231ZM728.037 345.969C727.519 345.969 727.12 345.829 726.84 345.549C726.574 345.283 726.441 344.884 726.441 344.352V333.117C726.441 332.599 726.574 332.207 726.84 331.941C727.12 331.661 727.505 331.521 727.995 331.521C728.513 331.521 728.905 331.661 729.171 331.941C729.437 332.207 729.57 332.599 729.57 333.117V334.545L729.339 333.726C729.549 333.054 729.969 332.515 730.599 332.109C731.243 331.689 731.978 331.479 732.804 331.479C733.7 331.479 734.484 331.696 735.156 332.13C735.842 332.564 736.374 333.18 736.752 333.978C737.13 334.776 737.319 335.728 737.319 336.834C737.319 337.94 737.13 338.899 736.752 339.711C736.374 340.523 735.849 341.146 735.177 341.58C734.505 342.014 733.714 342.231 732.804 342.231C731.992 342.231 731.271 342.035 730.641 341.643C730.011 341.237 729.584 340.712 729.36 340.068H729.612V344.352C729.612 344.884 729.472 345.283 729.192 345.549C728.926 345.829 728.541 345.969 728.037 345.969ZM731.859 339.858C732.307 339.858 732.699 339.746 733.035 339.522C733.385 339.298 733.651 338.969 733.833 338.535C734.029 338.087 734.127 337.52 734.127 336.834C734.127 335.812 733.917 335.063 733.497 334.587C733.077 334.097 732.531 333.852 731.859 333.852C731.411 333.852 731.012 333.957 730.662 334.167C730.326 334.377 730.06 334.706 729.864 335.154C729.668 335.588 729.57 336.148 729.57 336.834C729.57 337.856 729.78 338.619 730.2 339.123C730.62 339.613 731.173 339.858 731.859 339.858ZM746.803 342C746.285 342 745.9 341.881 745.648 341.643C745.41 341.391 745.291 341.027 745.291 340.551C745.291 340.243 745.368 339.956 745.522 339.69C745.676 339.424 745.886 339.151 746.152 338.871L750.1 334.713C750.688 334.083 751.108 333.523 751.36 333.033C751.626 332.543 751.759 332.053 751.759 331.563C751.759 330.947 751.556 330.478 751.15 330.156C750.758 329.834 750.184 329.673 749.428 329.673C749.022 329.673 748.602 329.736 748.168 329.862C747.748 329.974 747.307 330.163 746.845 330.429C746.537 330.597 746.25 330.66 745.984 330.618C745.732 330.562 745.515 330.443 745.333 330.261C745.151 330.065 745.032 329.834 744.976 329.568C744.92 329.302 744.948 329.036 745.06 328.77C745.172 328.504 745.382 328.28 745.69 328.098C746.306 327.72 746.978 327.44 747.706 327.258C748.434 327.062 749.155 326.964 749.869 326.964C750.975 326.964 751.906 327.132 752.662 327.468C753.418 327.79 753.992 328.266 754.384 328.896C754.776 329.526 754.972 330.296 754.972 331.206C754.972 331.794 754.881 332.368 754.699 332.928C754.517 333.488 754.23 334.055 753.838 334.629C753.46 335.189 752.956 335.791 752.326 336.435L748.651 340.173V339.333H754.342C754.79 339.333 755.126 339.445 755.35 339.669C755.588 339.893 755.707 340.222 755.707 340.656C755.707 341.09 755.588 341.426 755.35 341.664C755.126 341.888 754.79 342 754.342 342H746.803Z" fill="white"/>
<path d="M654.657 379.189C654.013 379.189 653.383 379.14 652.767 379.042C652.151 378.944 651.57 378.797 651.024 378.601C650.478 378.391 649.988 378.139 649.554 377.845C649.344 377.691 649.197 377.516 649.113 377.32C649.043 377.124 649.022 376.935 649.05 376.753C649.092 376.557 649.176 376.389 649.302 376.249C649.428 376.109 649.582 376.025 649.764 375.997C649.946 375.955 650.149 376.011 650.373 376.165C651.003 376.571 651.668 376.872 652.368 377.068C653.068 377.25 653.831 377.341 654.657 377.341C655.847 377.341 656.722 377.131 657.282 376.711C657.856 376.277 658.143 375.717 658.143 375.031C658.143 374.471 657.94 374.03 657.534 373.708C657.128 373.372 656.449 373.106 655.497 372.91L653.25 372.448C651.92 372.168 650.926 371.706 650.268 371.062C649.624 370.418 649.302 369.55 649.302 368.458C649.302 367.8 649.435 367.198 649.701 366.652C649.981 366.106 650.366 365.637 650.856 365.245C651.346 364.839 651.934 364.531 652.62 364.321C653.306 364.111 654.055 364.006 654.867 364.006C655.735 364.006 656.547 364.118 657.303 364.342C658.073 364.566 658.759 364.909 659.361 365.371C659.543 365.497 659.662 365.658 659.718 365.854C659.788 366.036 659.802 366.218 659.76 366.4C659.732 366.582 659.655 366.736 659.529 366.862C659.403 366.988 659.242 367.065 659.046 367.093C658.85 367.107 658.633 367.037 658.395 366.883C657.849 366.519 657.289 366.26 656.715 366.106C656.155 365.938 655.532 365.854 654.846 365.854C654.16 365.854 653.558 365.959 653.04 366.169C652.536 366.379 652.144 366.673 651.864 367.051C651.598 367.429 651.465 367.877 651.465 368.395C651.465 368.983 651.654 369.452 652.032 369.802C652.41 370.152 653.04 370.418 653.922 370.6L656.148 371.062C657.548 371.356 658.591 371.811 659.277 372.427C659.963 373.043 660.306 373.862 660.306 374.884C660.306 375.542 660.173 376.137 659.907 376.669C659.641 377.187 659.263 377.635 658.773 378.013C658.283 378.391 657.688 378.685 656.988 378.895C656.302 379.091 655.525 379.189 654.657 379.189ZM663.604 382.927C663.268 382.927 663.009 382.836 662.827 382.654C662.645 382.472 662.554 382.206 662.554 381.856V369.676C662.554 369.326 662.645 369.06 662.827 368.878C663.009 368.696 663.261 368.605 663.583 368.605C663.919 368.605 664.178 368.696 664.36 368.878C664.542 369.06 664.633 369.326 664.633 369.676V371.503L664.402 371.062C664.626 370.306 665.067 369.704 665.725 369.256C666.383 368.794 667.16 368.563 668.056 368.563C668.966 368.563 669.757 368.78 670.429 369.214C671.115 369.648 671.64 370.257 672.004 371.041C672.382 371.825 672.571 372.77 672.571 373.876C672.571 374.954 672.382 375.899 672.004 376.711C671.64 377.509 671.122 378.125 670.45 378.559C669.778 378.979 668.98 379.189 668.056 379.189C667.174 379.189 666.404 378.965 665.746 378.517C665.088 378.069 664.647 377.474 664.423 376.732H664.675V381.856C664.675 382.206 664.577 382.472 664.381 382.654C664.199 382.836 663.94 382.927 663.604 382.927ZM667.531 377.551C668.119 377.551 668.63 377.411 669.064 377.131C669.498 376.851 669.834 376.438 670.072 375.892C670.31 375.346 670.429 374.674 670.429 373.876C670.429 372.672 670.163 371.762 669.631 371.146C669.113 370.53 668.413 370.222 667.531 370.222C666.957 370.222 666.446 370.362 665.998 370.642C665.564 370.908 665.228 371.314 664.99 371.86C664.752 372.406 664.633 373.078 664.633 373.876C664.633 375.066 664.899 375.976 665.431 376.606C665.963 377.236 666.663 377.551 667.531 377.551ZM679.771 379.189C678.651 379.189 677.685 378.979 676.873 378.559C676.075 378.125 675.452 377.516 675.004 376.732C674.57 375.934 674.353 374.989 674.353 373.897C674.353 372.833 674.57 371.902 675.004 371.104C675.438 370.306 676.033 369.683 676.789 369.235C677.545 368.787 678.406 368.563 679.372 368.563C680.086 368.563 680.723 368.682 681.283 368.92C681.843 369.144 682.319 369.48 682.711 369.928C683.117 370.362 683.418 370.894 683.614 371.524C683.824 372.154 683.929 372.861 683.929 373.645C683.929 373.883 683.859 374.065 683.719 374.191C683.579 374.303 683.369 374.359 683.089 374.359H676.033V373.057H682.501L682.144 373.351C682.144 372.651 682.039 372.056 681.829 371.566C681.633 371.076 681.332 370.705 680.926 370.453C680.534 370.187 680.044 370.054 679.456 370.054C678.798 370.054 678.238 370.208 677.776 370.516C677.328 370.824 676.985 371.251 676.747 371.797C676.509 372.343 676.39 372.98 676.39 373.708V373.834C676.39 375.066 676.677 375.997 677.251 376.627C677.839 377.243 678.686 377.551 679.792 377.551C680.212 377.551 680.653 377.495 681.115 377.383C681.591 377.271 682.039 377.082 682.459 376.816C682.697 376.676 682.907 376.613 683.089 376.627C683.285 376.641 683.439 376.704 683.551 376.816C683.677 376.928 683.754 377.068 683.782 377.236C683.81 377.404 683.782 377.579 683.698 377.761C683.614 377.929 683.467 378.083 683.257 378.223C682.781 378.545 682.228 378.79 681.598 378.958C680.968 379.112 680.359 379.189 679.771 379.189ZM690.756 379.189C689.706 379.189 688.796 378.972 688.026 378.538C687.27 378.09 686.682 377.467 686.262 376.669C685.842 375.857 685.632 374.905 685.632 373.813C685.632 373.001 685.751 372.273 685.989 371.629C686.227 370.971 686.563 370.418 686.997 369.97C687.445 369.522 687.984 369.179 688.614 368.941C689.258 368.689 689.972 368.563 690.756 368.563C691.246 368.563 691.757 368.64 692.289 368.794C692.835 368.934 693.339 369.172 693.801 369.508C693.983 369.62 694.095 369.76 694.137 369.928C694.193 370.082 694.2 370.243 694.158 370.411C694.13 370.579 694.053 370.726 693.927 370.852C693.815 370.964 693.675 371.034 693.507 371.062C693.339 371.076 693.157 371.027 692.961 370.915C692.625 370.677 692.282 370.509 691.932 370.411C691.582 370.299 691.246 370.243 690.924 370.243C690.42 370.243 689.972 370.327 689.58 370.495C689.202 370.649 688.88 370.88 688.614 371.188C688.348 371.482 688.145 371.853 688.005 372.301C687.879 372.749 687.816 373.26 687.816 373.834C687.816 374.982 688.082 375.885 688.614 376.543C689.16 377.187 689.93 377.509 690.924 377.509C691.246 377.509 691.582 377.46 691.932 377.362C692.282 377.264 692.625 377.096 692.961 376.858C693.157 376.746 693.339 376.704 693.507 376.732C693.675 376.76 693.808 376.837 693.906 376.963C694.018 377.075 694.088 377.215 694.116 377.383C694.158 377.537 694.151 377.698 694.095 377.866C694.039 378.034 693.92 378.174 693.738 378.286C693.29 378.608 692.8 378.839 692.268 378.979C691.75 379.119 691.246 379.189 690.756 379.189ZM697.094 379.126C696.758 379.126 696.499 379.028 696.317 378.832C696.135 378.622 696.044 378.335 696.044 377.971V369.781C696.044 369.417 696.135 369.137 696.317 368.941C696.499 368.745 696.758 368.647 697.094 368.647C697.43 368.647 697.689 368.745 697.871 368.941C698.067 369.137 698.165 369.417 698.165 369.781V377.971C698.165 378.335 698.074 378.622 697.892 378.832C697.71 379.028 697.444 379.126 697.094 379.126ZM697.094 366.463C696.674 366.463 696.345 366.358 696.107 366.148C695.883 365.938 695.771 365.644 695.771 365.266C695.771 364.874 695.883 364.58 696.107 364.384C696.345 364.174 696.674 364.069 697.094 364.069C697.514 364.069 697.836 364.174 698.06 364.384C698.298 364.58 698.417 364.874 698.417 365.266C698.417 365.644 698.298 365.938 698.06 366.148C697.836 366.358 697.514 366.463 697.094 366.463ZM702.83 379.147C702.494 379.147 702.228 379.056 702.032 378.874C701.85 378.678 701.759 378.412 701.759 378.076V370.39H700.583C700.317 370.39 700.107 370.32 699.953 370.18C699.799 370.026 699.722 369.823 699.722 369.571C699.722 369.305 699.799 369.102 699.953 368.962C700.107 368.822 700.317 368.752 700.583 368.752H702.368L701.759 369.319V368.563C701.759 367.177 702.102 366.134 702.788 365.434C703.474 364.72 704.475 364.3 705.791 364.174L706.442 364.132C706.68 364.104 706.869 364.139 707.009 364.237C707.149 364.335 707.24 364.461 707.282 364.615C707.324 364.769 707.324 364.93 707.282 365.098C707.254 365.252 707.184 365.392 707.072 365.518C706.96 365.644 706.82 365.714 706.652 365.728L706.253 365.749C705.427 365.819 704.825 366.057 704.447 366.463C704.069 366.855 703.88 367.457 703.88 368.269V369.088L703.586 368.752H705.917C706.211 368.752 706.428 368.822 706.568 368.962C706.722 369.102 706.799 369.305 706.799 369.571C706.799 369.823 706.722 370.026 706.568 370.18C706.428 370.32 706.211 370.39 705.917 370.39H703.88V378.076C703.88 378.79 703.53 379.147 702.83 379.147ZM710.661 382.927C710.409 382.927 710.199 382.857 710.031 382.717C709.877 382.591 709.786 382.416 709.758 382.192C709.744 381.982 709.786 381.751 709.884 381.499L711.312 378.286V379.189L707.385 370.054C707.287 369.802 707.252 369.564 707.28 369.34C707.308 369.116 707.413 368.941 707.595 368.815C707.777 368.675 708.022 368.605 708.33 368.605C708.596 368.605 708.806 368.668 708.96 368.794C709.114 368.92 709.254 369.137 709.38 369.445L712.551 377.278H711.963L715.176 369.445C715.302 369.123 715.449 368.906 715.617 368.794C715.785 368.668 716.016 368.605 716.31 368.605C716.562 368.605 716.758 368.675 716.898 368.815C717.052 368.941 717.143 369.116 717.171 369.34C717.213 369.55 717.178 369.781 717.066 370.033L711.816 382.108C711.676 382.43 711.515 382.647 711.333 382.759C711.165 382.871 710.941 382.927 710.661 382.927ZM727.969 379.189C727.255 379.189 726.611 379.049 726.037 378.769C725.477 378.489 725.036 378.111 724.714 377.635C724.392 377.159 724.231 376.62 724.231 376.018C724.231 375.262 724.42 374.667 724.798 374.233C725.19 373.785 725.827 373.47 726.709 373.288C727.605 373.092 728.809 372.994 730.321 372.994H731.308V374.296H730.342C729.334 374.296 728.536 374.345 727.948 374.443C727.36 374.541 726.94 374.709 726.688 374.947C726.45 375.171 726.331 375.486 726.331 375.892C726.331 376.424 726.513 376.858 726.877 377.194C727.241 377.516 727.745 377.677 728.389 377.677C728.907 377.677 729.362 377.558 729.754 377.32C730.146 377.068 730.454 376.732 730.678 376.312C730.916 375.892 731.035 375.409 731.035 374.863V372.448C731.035 371.65 730.867 371.076 730.531 370.726C730.195 370.376 729.642 370.201 728.872 370.201C728.424 370.201 727.955 370.257 727.465 370.369C726.989 370.481 726.492 370.67 725.974 370.936C725.736 371.048 725.533 371.083 725.365 371.041C725.197 370.999 725.064 370.908 724.966 370.768C724.868 370.614 724.812 370.453 724.798 370.285C724.798 370.103 724.84 369.928 724.924 369.76C725.022 369.592 725.183 369.466 725.407 369.382C726.023 369.088 726.632 368.878 727.234 368.752C727.836 368.626 728.403 368.563 728.935 368.563C729.873 368.563 730.643 368.71 731.245 369.004C731.861 369.298 732.316 369.746 732.61 370.348C732.904 370.95 733.051 371.727 733.051 372.679V378.076C733.051 378.412 732.967 378.678 732.799 378.874C732.631 379.056 732.386 379.147 732.064 379.147C731.756 379.147 731.511 379.056 731.329 378.874C731.147 378.678 731.056 378.412 731.056 378.076V376.711H731.245C731.133 377.229 730.923 377.677 730.615 378.055C730.321 378.419 729.95 378.699 729.502 378.895C729.054 379.091 728.543 379.189 727.969 379.189ZM742.602 379.147C742.266 379.147 742.007 379.056 741.825 378.874C741.643 378.678 741.552 378.412 741.552 378.076V369.676C741.552 369.326 741.643 369.06 741.825 368.878C742.007 368.696 742.259 368.605 742.581 368.605C742.917 368.605 743.169 368.696 743.337 368.878C743.519 369.06 743.61 369.326 743.61 369.676V371.398L743.379 370.936C743.659 370.194 744.093 369.613 744.681 369.193C745.269 368.773 745.976 368.563 746.802 368.563C747.656 368.563 748.349 368.766 748.881 369.172C749.413 369.578 749.777 370.201 749.973 371.041H749.679C749.945 370.271 750.4 369.669 751.044 369.235C751.688 368.787 752.437 368.563 753.291 368.563C754.075 368.563 754.719 368.717 755.223 369.025C755.727 369.319 756.105 369.774 756.357 370.39C756.609 370.992 756.735 371.755 756.735 372.679V378.076C756.735 378.412 756.637 378.678 756.441 378.874C756.259 379.056 756 379.147 755.664 379.147C755.328 379.147 755.069 379.056 754.887 378.874C754.705 378.678 754.614 378.412 754.614 378.076V372.784C754.614 371.916 754.46 371.279 754.152 370.873C753.858 370.467 753.368 370.264 752.682 370.264C751.912 370.264 751.303 370.53 750.855 371.062C750.407 371.594 750.183 372.329 750.183 373.267V378.076C750.183 378.412 750.092 378.678 749.91 378.874C749.728 379.056 749.469 379.147 749.133 379.147C748.797 379.147 748.531 379.056 748.335 378.874C748.153 378.678 748.062 378.412 748.062 378.076V372.784C748.062 371.916 747.915 371.279 747.621 370.873C747.327 370.467 746.837 370.264 746.151 370.264C745.381 370.264 744.772 370.53 744.324 371.062C743.89 371.594 743.673 372.329 743.673 373.267V378.076C743.673 378.79 743.316 379.147 742.602 379.147ZM764.152 379.189C763.116 379.189 762.22 378.972 761.464 378.538C760.722 378.104 760.141 377.488 759.721 376.69C759.301 375.892 759.091 374.954 759.091 373.876C759.091 373.05 759.21 372.315 759.448 371.671C759.686 371.027 760.022 370.474 760.456 370.012C760.904 369.536 761.436 369.179 762.052 368.941C762.682 368.689 763.382 368.563 764.152 368.563C765.174 368.563 766.056 368.78 766.798 369.214C767.554 369.648 768.142 370.264 768.562 371.062C768.982 371.846 769.192 372.784 769.192 373.876C769.192 374.688 769.073 375.423 768.835 376.081C768.597 376.739 768.254 377.299 767.806 377.761C767.372 378.223 766.84 378.58 766.21 378.832C765.594 379.07 764.908 379.189 764.152 379.189ZM764.152 377.551C764.726 377.551 765.23 377.411 765.664 377.131C766.098 376.851 766.434 376.438 766.672 375.892C766.924 375.346 767.05 374.674 767.05 373.876C767.05 372.672 766.784 371.762 766.252 371.146C765.72 370.53 765.02 370.222 764.152 370.222C763.564 370.222 763.053 370.362 762.619 370.642C762.185 370.908 761.842 371.314 761.59 371.86C761.352 372.406 761.233 373.078 761.233 373.876C761.233 375.066 761.499 375.976 762.031 376.606C762.563 377.236 763.27 377.551 764.152 377.551ZM775.48 379.189C774.584 379.189 773.793 378.979 773.107 378.559C772.435 378.125 771.91 377.509 771.532 376.711C771.154 375.899 770.965 374.954 770.965 373.876C770.965 372.77 771.154 371.825 771.532 371.041C771.91 370.257 772.435 369.648 773.107 369.214C773.793 368.78 774.584 368.563 775.48 368.563C776.376 368.563 777.146 368.787 777.79 369.235C778.448 369.669 778.889 370.257 779.113 370.999H778.882V365.119C778.882 364.769 778.973 364.503 779.155 364.321C779.337 364.139 779.596 364.048 779.932 364.048C780.268 364.048 780.527 364.139 780.709 364.321C780.905 364.503 781.003 364.769 781.003 365.119V378.076C781.003 378.412 780.912 378.678 780.73 378.874C780.548 379.056 780.289 379.147 779.953 379.147C779.617 379.147 779.358 379.056 779.176 378.874C778.994 378.678 778.903 378.412 778.903 378.076V376.228L779.134 376.69C778.91 377.446 778.469 378.055 777.811 378.517C777.167 378.965 776.39 379.189 775.48 379.189ZM776.026 377.551C776.6 377.551 777.104 377.411 777.538 377.131C777.972 376.851 778.308 376.438 778.546 375.892C778.798 375.346 778.924 374.674 778.924 373.876C778.924 372.672 778.658 371.762 778.126 371.146C777.594 370.53 776.894 370.222 776.026 370.222C775.438 370.222 774.927 370.362 774.493 370.642C774.059 370.908 773.716 371.314 773.464 371.86C773.226 372.406 773.107 373.078 773.107 373.876C773.107 375.066 773.373 375.976 773.905 376.606C774.437 377.236 775.144 377.551 776.026 377.551ZM788.79 379.189C787.67 379.189 786.704 378.979 785.892 378.559C785.094 378.125 784.471 377.516 784.023 376.732C783.589 375.934 783.372 374.989 783.372 373.897C783.372 372.833 783.589 371.902 784.023 371.104C784.457 370.306 785.052 369.683 785.808 369.235C786.564 368.787 787.425 368.563 788.391 368.563C789.105 368.563 789.742 368.682 790.302 368.92C790.862 369.144 791.338 369.48 791.73 369.928C792.136 370.362 792.437 370.894 792.633 371.524C792.843 372.154 792.948 372.861 792.948 373.645C792.948 373.883 792.878 374.065 792.738 374.191C792.598 374.303 792.388 374.359 792.108 374.359H785.052V373.057H791.52L791.163 373.351C791.163 372.651 791.058 372.056 790.848 371.566C790.652 371.076 790.351 370.705 789.945 370.453C789.553 370.187 789.063 370.054 788.475 370.054C787.817 370.054 787.257 370.208 786.795 370.516C786.347 370.824 786.004 371.251 785.766 371.797C785.528 372.343 785.409 372.98 785.409 373.708V373.834C785.409 375.066 785.696 375.997 786.27 376.627C786.858 377.243 787.705 377.551 788.811 377.551C789.231 377.551 789.672 377.495 790.134 377.383C790.61 377.271 791.058 377.082 791.478 376.816C791.716 376.676 791.926 376.613 792.108 376.627C792.304 376.641 792.458 376.704 792.57 376.816C792.696 376.928 792.773 377.068 792.801 377.236C792.829 377.404 792.801 377.579 792.717 377.761C792.633 377.929 792.486 378.083 792.276 378.223C791.8 378.545 791.247 378.79 790.617 378.958C789.987 379.112 789.378 379.189 788.79 379.189ZM798.558 379.189C797.466 379.189 796.64 378.874 796.08 378.244C795.534 377.6 795.261 376.676 795.261 375.472V365.119C795.261 364.769 795.352 364.503 795.534 364.321C795.716 364.139 795.975 364.048 796.311 364.048C796.647 364.048 796.906 364.139 797.088 364.321C797.284 364.503 797.382 364.769 797.382 365.119V375.346C797.382 376.046 797.522 376.571 797.802 376.921C798.096 377.257 798.516 377.425 799.062 377.425C799.188 377.425 799.3 377.425 799.398 377.425C799.496 377.411 799.594 377.397 799.692 377.383C799.86 377.369 799.979 377.418 800.049 377.53C800.119 377.628 800.154 377.838 800.154 378.16C800.154 378.454 800.091 378.685 799.965 378.853C799.839 379.007 799.636 379.105 799.356 379.147C799.23 379.161 799.097 379.168 798.957 379.168C798.817 379.182 798.684 379.189 798.558 379.189Z" fill="white"/>
<circle cx="899" cy="354" r="56" fill="#D9D9D9"/>
<path d="M911.25 368H886.75V369.75C886.75 370.717 885.966 371.5 885 371.5H883.25C882.284 371.5 881.5 370.717 881.5 369.75V352.25L885.841 342.121C886.392 340.834 887.658 340 889.058 340H908.942C910.342 340 911.608 340.834 912.159 342.121L916.5 352.25V369.75C916.5 370.717 915.717 371.5 914.75 371.5H913C912.033 371.5 911.25 370.717 911.25 369.75V368ZM913 355.75H885V364.5H913V355.75ZM885.308 352.25H912.692L908.942 343.5H889.058L885.308 352.25ZM889.375 362.75C887.925 362.75 886.75 361.575 886.75 360.125C886.75 358.675 887.925 357.5 889.375 357.5C890.825 357.5 892 358.675 892 360.125C892 361.575 890.825 362.75 889.375 362.75ZM908.625 362.75C907.175 362.75 906 361.575 906 360.125C906 358.675 907.175 357.5 908.625 357.5C910.075 357.5 911.25 358.675 911.25 360.125C911.25 361.575 910.075 362.75 908.625 362.75Z" fill="black"/>
</svg>
